<svg width="1512" height="466" viewBox="0 0 1512 466" fill="none" xmlns="http://www.w3.org/2000/svg">
<mask id="mask0_2_83" style="mask-type:luminance" maskUnits="userSpaceOnUse" x="0" y="0" width="1523" height="466">
<path d="M0 0H1523V466H0V0Z" fill="white"/>
</mask>
<g mask="url(#mask0_2_83)">
<path d="M0 0H1523V466H0V0Z" fill="#191E29"/>
<path d="M270.853 -17.7676C273.834 -18.1895 282.815 -21.5874 286.073 -22.5481C289.333 -23.4982 292.595 -20.6373 298.028 -23.4983C303.462 -26.3592 309.986 -27.3199 309.986 -27.3199C309.986 -27.3199 314.332 -28.2787 316.506 -28.2787C318.681 -28.2787 325.201 -28.27 328.461 -30.1808C331.725 -32.0916 332.812 -34.9613 337.159 -34.9613C341.507 -34.9613 348.027 -37.8223 352.376 -38.7725C356.725 -39.7331 356.72 -41.6439 362.156 -42.5941C367.593 -43.5547 369.86 -47.3763 374.704 -47.3763C379.549 -47.3763 388.244 -50.2373 392.593 -52.1481C396.942 -54.0571 400.208 -53.0983 398.028 -55.0073C395.851 -56.9181 394.77 -55.9679 398.028 -57.8787C401.286 -59.7791 408.988 -59.7041 415.419 -64.5613C421.852 -69.4168 425.218 -68.0063 428.461 -69.3331C431.704 -70.6685 439.334 -72.1923 440.421 -73.153C441.505 -74.1049 448.029 -74.1049 448.029 -74.1049C448.029 -74.1049 443.856 -72.8723 444.767 -71.2439C445.676 -69.6051 445.425 -70.7906 438.743 -69.7567C432.065 -68.7211 416.571 -65.0599 418.168 -62.4239C419.766 -59.7791 418.679 -60.7397 418.679 -60.7397L421.939 -61.6899C421.939 -61.6899 406.81 -58.2274 414.33 -56.9181C421.852 -55.6105 427.376 -61.6899 431.723 -61.6899C436.07 -61.6899 445.858 -63.6007 448.029 -65.5115C450.2 -67.4223 449.116 -70.2832 454.549 -71.2439C459.985 -72.1941 467.589 -76.0139 466.504 -72.1941C465.42 -68.3725 462.16 -71.2439 465.42 -68.3725C468.678 -65.5115 466.504 -63.6007 475.2 -63.6007C483.895 -63.6007 485.142 -64.5142 489.331 -62.6505C493.519 -60.7868 495.851 -59.7791 498.026 -58.8289C500.199 -57.8787 501.286 -59.7808 505.635 -52.1481C509.983 -44.5049 515.419 -53.0983 511.07 -48.3265C506.724 -43.5547 499.113 -39.7331 505.635 -32.0916C512.157 -24.4589 509.986 -24.4589 513.246 -19.6767C516.503 -14.9049 515.871 -15.5465 515.419 -9.17421C514.964 -2.81242 519.763 -1.53276 518.679 4.19092C517.592 9.92159 517.59 5.14981 514.33 10.8717C511.07 16.6042 507.81 9.9216 511.07 16.6042C514.33 23.2868 518.272 20.7832 519.766 27.1066C521.259 33.4318 518.374 27.9173 518.136 35.7C517.9 43.4827 520.852 43.3415 514.33 51.9348C507.808 60.5282 497.537 74.3623 493.088 76.3202C488.64 78.2781 491.759 82.2688 488.246 88.2157C484.731 94.1642 477.613 94.485 479.124 99.4626C480.635 104.451 480.224 103.143 479.031 108.225C477.839 113.307 476.289 116.855 479.551 119.726C482.811 122.587 483.897 119.726 481.724 123.548C479.551 127.368 478.464 122.587 479.551 127.368C480.635 132.14 478.462 125.448 480.635 133.09C482.811 140.733 484.984 134.05 483.895 141.683C482.811 149.325 480.637 147.416 483.895 149.325C487.155 151.236 488.242 150.277 495.851 155.057C503.461 159.829 505.234 154.7 504.55 161.74C503.864 168.78 506.52 169.118 505.635 177.014C504.749 184.91 505.639 182.746 506.724 186.566C507.81 190.388 510.527 189.532 512.157 195.16C513.787 200.787 518.681 200.892 515.419 204.703C512.157 208.525 514.332 207.573 511.07 208.525C507.808 209.484 502.377 204.703 506.724 209.484C511.07 214.255 509.986 212.345 517.592 217.116C525.201 221.888 524.112 219.988 525.201 223.808C526.288 227.621 524.826 228.984 525.201 233.351C525.573 237.71 527.515 235.921 530.636 239.084C533.756 242.236 538.245 244.806 538.245 247.675C538.245 250.536 542.594 254.358 542.594 249.586C542.594 244.805 544.769 248.627 542.594 243.855C540.418 239.084 541.505 241.945 539.33 238.123C537.156 234.301 536.641 243.451 536.07 237.173C535.5 230.895 534.981 226.669 533.894 222.849C532.81 219.027 533.576 218.753 531.721 216.166C529.864 213.577 529.548 214.651 528.461 208.722C527.374 202.792 526.29 201.842 524.114 198.021C521.941 194.199 518.679 193.55 518.679 187.668C518.679 181.786 512.157 176.064 519.766 176.064C527.374 176.064 532.81 175.103 532.81 180.836C532.81 186.566 533.182 182.952 533.894 193.249C534.608 203.545 533.766 202.133 540.895 210.104C548.027 218.077 549.893 211.94 551.287 221.888C552.681 231.845 552.356 225.691 558.894 233.351C565.433 241.003 575.297 243.535 573.027 251.488C570.756 259.45 572.602 259.13 573.358 263.901C574.113 268.682 566.507 261.991 571.94 272.503C577.373 283.006 580.568 286.611 592.015 291.967C603.461 297.321 603.461 299.232 616.505 304.013C629.55 308.784 634.981 313.556 644.765 311.645C654.549 309.736 659.982 304.012 668.678 312.606C677.375 321.199 682.863 328.004 696.937 329.791C711.016 331.571 714.551 331.9 718.674 337.424C722.8 342.959 732.807 347.928 731.721 352.708C730.634 357.48 728.461 362.252 731.721 363.212C734.981 364.163 740.977 362.111 743.676 367.024C746.375 371.945 741.498 373.715 750.196 375.617C758.896 377.526 761.069 384.219 767.048 385.169C773.024 386.119 780.594 389.197 779.001 380.915C777.412 372.632 773.022 373.715 782.806 373.715C792.59 373.715 794.372 369.546 795.848 377.526C797.327 385.507 797.844 384.604 800.593 393.29C803.344 401.969 802.375 402.354 801.286 410.948C800.197 419.539 803.727 423.851 796.937 426.231C790.149 428.612 791.506 431.954 788.242 435.774C784.98 439.596 783.373 436.236 779.001 443.417C774.63 450.599 770.849 455.831 770.849 461.552C770.849 467.285 773.585 463.821 776.284 472.065C778.986 480.301 770.098 476.799 769.764 485.431C769.433 494.061 758.943 497.91 771.126 502.738C783.306 507.565 786.07 515.97 788.242 519.801C790.417 523.622 801.634 541.428 805.632 548.449C809.63 555.471 811.066 549.306 813.784 557.945C816.503 566.586 812.157 569.455 815.417 571.366C818.677 573.268 825.53 581.748 836.065 586.642C846.605 591.536 868.745 601.041 871.394 610.039C874.042 619.045 874.113 645.84 875.2 654.432C876.284 663.025 880.284 667.157 877.369 676.39C874.457 685.632 877.12 687.25 875.2 696.445C873.28 705.651 873.604 713.726 877.369 717.452C881.135 721.179 882.808 735.597 880.633 752.782C878.46 769.969 878.457 775.06 881.719 783.973C884.979 792.885 882.806 788.115 883.893 798.617C884.979 809.12 882.806 819.851 887.153 820.217C891.502 820.574 888.239 800.528 892.588 808.161C896.935 815.802 895.848 811.972 899.11 825.346C902.37 838.72 908.892 842.531 901.284 843.491C893.675 844.452 888.118 840.932 891.502 847.313C894.887 853.684 907.682 848.479 901.284 857.816C894.887 867.143 892.593 860.677 898.024 868.32C903.457 875.961 902.372 879.783 908.894 886.464C915.414 893.137 916.499 884.544 919.759 891.235C923.023 897.918 923.291 900.46 925.198 903.64C927.103 906.83 944.763 911.283 951.282 914.153C957.805 917.014 968.102 921.927 976.282 923.696C984.464 925.466 989.326 918.925 993.675 918.925C998.021 918.925 1005.45 916.648 999.11 917.014C992.768 917.382 989.326 916.064 980.631 911.283C971.935 906.511 966.288 905.758 963.24 899.829C960.192 893.899 943.676 881.683 951.285 880.733C958.893 879.772 962.158 883.585 961.067 876.911C959.978 870.229 961.06 868.32 964.324 865.448C967.587 862.587 969.387 863.839 968.675 859.726C967.963 855.614 967.71 854.296 959.978 853.994C952.248 853.684 950.2 853.035 950.2 847.313C950.2 841.581 944.763 840.63 952.369 838.72C959.978 836.809 961.067 842.541 961.067 832.987C961.067 823.435 955.636 826.307 961.067 822.485C966.5 818.663 966.502 818.663 968.132 816.283C969.762 813.891 954.545 812.941 954.545 809.12C954.545 805.3 947.297 802.88 953.458 802.428C959.621 801.987 961.504 806.316 967.586 804.35C973.671 802.373 978.111 806.353 975.197 798.617C972.286 790.882 967.448 788.584 970.849 785.243C974.249 781.912 983.891 790.024 995.848 783.333C1007.81 776.65 1010.31 775.475 1010.69 769.376C1011.07 763.287 1016.03 766.561 1008.89 762.326C1001.75 758.1 1008.06 754.402 1001.28 751.353C994.506 748.304 994.757 748.002 992.586 741.319C990.417 734.647 991.501 734.647 991.501 734.647C991.501 734.647 994.06 745.038 999.846 746.525C1005.63 748.011 1008.49 750.901 1018.67 750.873C1028.86 750.854 1037.16 740.181 1038.24 734.647C1039.32 729.114 1041.5 727.006 1044.76 723.184C1048.02 719.363 1046.4 723.645 1051.28 713.632C1056.17 703.626 1057.8 704.078 1061.06 697.397C1064.33 690.715 1065.41 696.445 1064.33 687.854C1063.24 679.26 1064.33 672.578 1064.33 669.708C1064.33 666.847 1061.06 667.797 1070.85 662.075C1080.63 656.343 1088.24 651.571 1094.76 649.662C1101.28 647.751 1114.12 648.607 1121.58 641.068C1129.05 633.519 1122.57 633.35 1129.54 621.012C1136.51 608.674 1139.96 598.952 1138.24 587.592C1136.52 576.232 1134.05 574.708 1136.06 565.635C1138.08 556.563 1137.24 559.291 1140.41 560.864C1143.58 562.434 1140.41 565.635 1144.76 556.081C1149.1 546.54 1157.15 543.942 1162.15 533.174C1167.16 522.398 1172.42 522.332 1170.84 514.07C1169.28 505.815 1171.37 506.85 1168.68 500.705C1165.98 494.559 1166.77 494.088 1161.47 492.545C1156.15 491.001 1144.76 487.34 1142.59 485.431C1140.41 483.52 1132.8 472.057 1125.2 473.016C1117.59 473.976 1112.65 472.451 1104.54 472.065C1096.44 471.67 1091.49 473.976 1087.15 469.196C1082.81 464.424 1088.24 464.424 1080.63 461.552C1073.02 458.692 1074.11 457.731 1067.59 455.831C1061.06 453.92 1062.16 451.059 1057.81 454.87C1053.46 458.692 1049.11 462.513 1050.2 457.741C1051.28 452.961 1058.89 450.098 1052.37 450.098C1045.85 450.098 1039.33 446.278 1038.24 443.417C1037.15 440.546 1037.68 442.326 1036.61 435.774C1035.54 429.224 1027.37 431.022 1028.46 424.942C1029.54 418.872 1035.33 412.923 1029.54 411.624C1023.75 410.325 1024.09 409.516 1017.59 405.224C1011.09 400.933 1009.28 396.472 1002.93 396.632C996.578 396.793 997.348 396.067 989.179 396.632C981.012 397.187 980.986 399.804 976.282 395.672C971.58 391.54 970.844 391.852 966.5 386.119C962.153 380.397 956.214 374.787 951.282 373.715C946.356 372.632 946.938 375.617 945.849 370.845C944.76 366.073 942.591 364.163 937.154 362.252C931.718 360.352 932.807 358.43 933.894 357.48C934.978 356.519 937.838 350.797 932.604 353.658C927.37 356.519 927.348 357.161 919.759 357.48C912.174 357.79 917.512 362.656 908.245 359.862C898.98 357.076 900.199 357.48 891.502 357.48C882.806 357.48 891.499 360.341 882.806 354.619C874.113 348.887 876.282 348.887 871.935 348.887C867.589 348.887 874.107 344.106 869.76 345.067C865.415 346.017 866.502 346.017 866.502 347.928C866.502 349.839 866.498 347.928 861.065 351.748C855.633 355.569 851.285 349.839 854.545 357.48C857.807 365.122 864.127 369.375 856.72 368.934C849.313 368.492 846.947 371.917 849.111 364.163C851.276 356.417 851.267 358.43 851.276 354.619C851.285 350.797 847.503 351.08 853.198 347.598C858.893 344.106 865.415 340.295 857.807 342.206C850.198 344.106 848.02 350.138 844.76 349.509C841.503 348.887 838.243 346.017 832.807 350.797C827.372 355.569 830.632 348.887 826.285 352.708C821.939 356.519 815.514 358.43 817.094 362.252C818.676 366.073 821.939 366.073 815.417 369.893C808.892 373.715 815.501 375.617 810.022 376.096C804.546 376.576 808.894 373.715 799.11 369.893C789.328 366.073 788.239 364.163 784.979 366.073C781.717 367.984 774.111 375.617 767.591 372.754C761.069 369.893 760.783 371.297 755.634 364.163C750.482 357.029 745.849 355.569 749.111 346.017C752.374 336.473 750.198 342.195 752.374 334.563C754.547 326.921 758.893 323.11 755.634 319.288C752.374 315.467 755.629 315.467 750.196 313.556C744.765 311.645 743.676 308.784 734.981 310.695C726.285 312.606 718.674 312.606 716.503 312.606C714.33 312.606 707.808 316.417 711.068 310.695C714.33 304.964 716.503 306.873 716.503 302.103C716.503 297.321 717.59 296.371 717.59 293.51C717.59 290.639 721.939 290.64 723.025 286.819C724.112 283.008 724.112 276.315 726.285 274.404C728.459 272.503 736.069 264.862 733.896 263.901C731.721 262.951 726.287 260.09 721.939 261.991C717.59 263.901 714.906 264.862 707.265 266.292C699.621 267.723 700.197 273.454 699.113 277.275C698.026 281.086 695.85 284.908 692.59 286.819C689.328 288.73 686.064 285.869 682.806 286.819C679.548 287.778 677.373 288.738 673.024 289.688C668.678 290.64 665.777 294.46 662.879 291.12C659.98 287.778 657.809 288.73 654.549 285.869C651.287 283.006 651.285 281.097 649.111 277.275C646.938 273.454 640.847 259.337 641.505 255.308C642.163 251.289 646.694 242 645.854 238.123C645.009 234.254 651.289 229.53 652.374 226.669C653.458 223.808 653.462 228.579 652.374 219.988C651.287 211.394 654.547 208.525 659.98 205.664C665.416 202.792 672.498 203.047 680.369 197.672C688.242 192.29 697.539 190.623 701.587 191.46C705.632 192.29 705.619 190.227 711.068 195.16C716.516 200.092 717.592 195.16 721.939 195.16C726.285 195.16 727.963 196.675 727.123 193.531C726.285 190.388 715.752 190.736 720.993 189.155C726.229 187.565 729.547 185.607 736.069 186.566C742.589 187.518 743.771 180.835 751.876 185.607C759.98 190.388 757.809 190.388 761.069 191.338C764.329 192.29 768.578 186.04 772.431 189.164C776.284 192.29 781.722 196.11 780.633 201.842C779.544 207.573 776.284 205.662 778.46 211.394C780.633 217.116 781.72 222.849 783.895 224.76C786.068 226.669 784.979 229.531 787.155 230.49C789.328 231.44 794.701 234.594 797.058 229.418C799.416 224.242 800.199 226.923 799.11 219.027C798.024 211.131 796.935 210.434 795.848 201.842C794.764 193.249 793.679 192.29 794.764 185.607C795.848 178.925 798.024 176.064 804.546 171.283C811.066 166.511 816.501 158.879 824.11 156.968C831.719 155.057 830.632 152.187 837.154 150.277C843.676 148.375 850.198 146.464 852.371 141.683C854.545 136.911 855.633 138.822 853.46 133.09C851.285 127.368 852.373 131.181 853.46 123.548C854.545 115.905 854.545 116.865 856.72 113.044C858.893 109.222 863.238 107.313 861.065 111.133C858.893 114.955 867.587 113.994 861.065 119.726C854.545 125.457 857.807 126.409 858.893 125.457C859.98 124.498 857.807 123.548 862.156 120.677C866.502 117.816 868.675 116.865 867.589 113.044C866.502 109.222 863.242 107.313 867.589 109.222C871.935 111.133 871.933 112.083 876.284 107.313C880.633 102.541 880.631 100.631 881.719 98.7198C882.806 96.809 879.544 96.809 888.239 94.8982C896.935 92.9874 896.939 92.0372 905.634 90.1264C914.328 88.2156 917.588 91.0766 917.588 89.1676C917.588 87.2568 917.592 92.9874 914.328 88.2157C911.066 83.4439 908.892 84.3958 913.241 79.624C917.59 74.8523 918.783 70.5041 926.283 70.0717C933.781 69.6376 931.718 65.3 936.065 65.3C940.416 65.3 945.849 65.3 948.025 63.3892C950.2 61.4784 951.847 59.8029 957.805 58.6174C963.762 57.4319 964.324 53.8456 969.762 55.7564C975.2 57.6568 974.113 59.5676 973.024 59.5676C971.935 59.5676 968.041 59.9442 962.153 62.439C956.265 64.9321 953.46 66.2589 954.545 68.1609C955.631 70.0717 951.285 71.9808 956.72 71.9808C962.153 71.9808 965.415 69.1198 969.762 67.209C974.109 65.3 974.111 64.3481 981.719 62.439C989.326 60.5282 992.586 59.5676 994.761 57.6568C996.935 55.7564 1001.28 54.7958 994.761 54.7958C988.242 54.7958 983.891 54.7958 980.631 52.885C977.371 50.9742 974.109 55.7564 974.109 48.1132C974.109 40.4718 976.286 40.4718 975.197 38.561C974.109 36.6501 979.546 40.4718 973.024 37.6108C966.5 34.7393 958.934 36.7722 965.415 34.7393C971.892 32.717 969.762 34.3453 976.282 31.6814C982.804 29.0174 987.155 29.0174 983.893 27.1066C980.631 25.1976 980.628 24.2457 974.109 25.1976C967.586 26.1477 966.952 26.1843 960.841 27.9452C954.731 29.7148 956.707 31.8784 949.105 33.7892C941.503 35.7 933.894 38.561 931.718 40.4718C929.543 42.3826 927.062 49.6579 928.458 44.2934C929.852 38.9288 932.807 32.839 939.327 32.839C945.849 32.839 944.763 26.1564 953.458 25.1976C962.153 24.2457 962.153 20.4258 967.586 18.515C973.024 16.6042 978.827 11.9074 983.678 14.0814C988.534 16.2555 998.021 15.6436 1002.37 16.6042C1006.72 17.5544 1014.33 20.4258 1021.94 15.6435C1029.54 10.8717 1025 6.10001 1038.68 5.14111C1052.37 4.19095 1056.72 6.10001 1058.89 0.369339C1061.06 -5.3526 1065.41 -3.45227 1062.15 -8.22404C1058.89 -12.9958 1056.72 -11.085 1053.46 -11.085C1050.2 -11.085 1063.43 -17.8513 1052.37 -15.8568C1041.31 -13.871 1040.41 -11.085 1034.98 -11.085C1029.54 -11.085 1025.19 -12.0439 1037.15 -14.9049C1049.11 -17.7676 1063.24 -15.8655 1054.54 -19.6767C1045.85 -23.4983 1041.5 -20.6373 1039.32 -24.4589C1037.15 -28.2787 1040.41 -24.4589 1036.07 -28.2787C1031.72 -32.0916 1026.28 -33.0418 1029.54 -36.8634C1032.8 -40.6833 1034.98 -41.6439 1033.89 -44.5049C1032.8 -47.3763 1034.98 -43.5547 1031.72 -51.1874C1028.46 -58.8289 1030.63 -62.6505 1027.37 -64.5596C1024.11 -66.4721 1025.2 -69.3331 1021.94 -63.6007C1018.67 -57.8787 1015.41 -57.87 1012.15 -55.009C1008.89 -52.1463 1007.81 -52.1463 1003.46 -51.1874C999.11 -50.2373 994.761 -48.3265 993.675 -50.2373C992.586 -52.1463 991.499 -48.3265 989.326 -54.0571C987.151 -59.7791 990.417 -58.8289 990.417 -64.5613C990.417 -70.2832 995.417 -66.6604 993.675 -70.2833C991.93 -73.9166 990.417 -70.2833 988.242 -71.2421C986.066 -72.1941 982.806 -70.2833 981.719 -73.153C980.631 -76.0139 982.806 -77.9247 978.457 -79.8355C974.109 -81.7463 974.873 -83.3468 973.024 -82.6965C971.173 -82.0479 971.937 -80.7857 967.586 -80.7857C963.24 -80.7857 962.151 -78.8749 957.805 -80.7857C953.458 -82.6965 951.287 -85.5679 948.025 -83.6571C944.76 -81.7463 940.416 -78.8766 940.416 -76.0157C940.416 -73.1529 942.589 -69.3331 939.327 -69.3331C936.065 -69.3331 934.978 -61.6899 934.978 -61.6899C934.978 -61.6899 928.458 -56.9181 926.283 -55.9679C924.11 -55.0091 918.672 -55.009 921.934 -52.1463C925.198 -49.2766 927.37 -51.1875 927.37 -45.4655C927.37 -39.7331 927.37 -32.0916 915.414 -27.3199C903.457 -22.5481 892.588 -22.5481 892.588 -19.6767C892.588 -16.8157 893.673 -15.8655 892.588 -10.1349C891.502 -4.40245 895.887 -2.98155 891.502 -0.580856C887.118 1.81812 892.906 5.95877 886.066 6.09999C879.226 6.2412 876.332 10.9014 875.2 8.0108C874.063 5.11322 869.76 3.23901 868.675 -1.54147C867.589 -6.31325 866.5 -3.4418 868.675 -9.17421C870.849 -14.9049 878.462 -18.7265 875.2 -21.5875C871.935 -24.4589 871.938 -23.4982 867.589 -24.4589C863.24 -25.4091 859.331 -24.0073 855.633 -26.3592C851.938 -28.7216 855.636 -24.9191 849.111 -29.2307C842.589 -33.5404 843.457 -34.6126 839.327 -36.3927C835.201 -38.1623 834.556 -37.1162 831.718 -38.7725C828.881 -40.4392 823.279 -38.9712 819.345 -40.3067C815.417 -41.6439 816.503 -41.6439 816.503 -47.3763C816.503 -53.0983 823.025 -49.2766 816.503 -53.0983C809.981 -56.9181 805.918 -53.3423 812.154 -59.7791C818.393 -66.2176 823.027 -71.2334 830.634 -75.0638C838.238 -78.8766 833.894 -77.9247 845.849 -81.7463C857.807 -85.5679 866.5 -92.2418 863.24 -91.2899C859.98 -90.3397 844.763 -92.24 857.807 -93.2007C870.849 -94.1596 866.5 -90.3397 870.849 -92.2488C875.2 -94.1596 875.197 -93.2007 881.719 -95.1115C888.239 -97.0205 890.413 -97.0205 894.759 -99.8815C899.11 -102.753 905.632 -102.753 899.11 -103.703C892.588 -104.662 889.326 -104.662 886.066 -106.575C882.806 -108.475 878.46 -110.394 884.979 -108.475C891.502 -106.575 896.937 -102.753 902.37 -105.614C907.806 -108.475 909.977 -107.525 911.066 -110.394C912.154 -113.257 909.979 -115.166 915.414 -113.257C920.85 -111.346 924.112 -108.475 925.198 -111.346C926.283 -114.206 920.852 -118.988 925.198 -117.077C929.543 -115.166 927.367 -111.346 930.632 -112.296C933.894 -113.255 938.243 -115.166 943.676 -117.077C949.109 -118.977 952.373 -118.977 950.2 -120.888C948.025 -122.799 943.678 -123.76 948.025 -125.67C952.369 -127.581 959.982 -131.392 958.893 -132.351C957.805 -133.303 958.891 -135.214 953.458 -136.173C948.025 -137.123 945.851 -142.855 940.416 -139.034C934.978 -135.214 934.978 -134.262 934.978 -132.351C934.978 -130.442 931.718 -131.401 929.543 -129.492C927.37 -127.581 926.281 -124.71 921.934 -124.71C917.588 -124.71 920.852 -119.938 916.503 -119.938C912.154 -119.938 906.721 -115.157 908.894 -120.888C911.066 -126.621 914.328 -121.849 914.328 -126.621C914.328 -131.392 911.07 -138.075 907.264 -133.783C903.457 -129.49 898.021 -120.899 899.11 -126.621C900.199 -132.353 902.37 -130.442 901.284 -133.303C900.199 -136.173 894.759 -133.312 894.759 -136.173C894.759 -139.034 894.764 -133.314 898.024 -140.945C901.284 -148.588 905.632 -147.627 901.284 -149.538C896.935 -151.449 901.281 -157.179 894.759 -153.358C888.239 -149.538 886.529 -151.853 879.544 -146.677C872.561 -141.49 867.587 -141.905 876.284 -138.084C884.979 -134.262 886.066 -135.214 883.893 -134.262C881.719 -133.303 882.897 -135.373 879.544 -131.392C876.191 -127.421 875.682 -127.562 873.024 -126.621C870.366 -125.69 859.98 -117.077 856.72 -118.979C853.46 -120.888 861.069 -120.897 855.633 -124.71C850.198 -128.531 854.542 -128.531 848.023 -126.621C841.503 -124.71 850.56 -120.965 839.327 -122.799C828.097 -124.643 838.197 -120.899 824.11 -122.799C810.022 -124.71 811.068 -124.71 806.719 -125.67C802.372 -126.621 807.998 -127.138 801.286 -128.53C794.571 -129.924 777.371 -128.53 779.544 -126.621C781.717 -124.71 789.328 -128.531 789.328 -126.621C789.328 -124.71 786.066 -127.579 782.806 -123.76C779.544 -119.938 776.282 -113.257 775.195 -115.166C774.111 -117.077 784.979 -120.888 774.111 -121.849C763.242 -122.799 763.247 -123.76 754.547 -122.799C745.849 -121.849 730.634 -121.849 736.069 -123.758C741.503 -125.67 748.027 -124.71 746.938 -127.581C745.849 -130.44 746.936 -131.392 740.416 -131.392C733.896 -131.392 727.772 -130.705 723.588 -132.351C719.404 -133.999 720.854 -133.303 714.33 -135.214C707.806 -137.125 711.07 -139.034 704.548 -137.125C698.026 -135.214 692.59 -130.442 692.59 -134.262C692.59 -138.084 698.028 -141.895 693.679 -139.034C689.328 -136.175 687.155 -130.442 683.895 -134.262C680.633 -138.084 684.876 -150.497 678.406 -145.246C671.938 -139.994 663.242 -139.984 661.069 -139.034C658.896 -138.084 658.894 -139.034 655.631 -139.034C652.374 -139.034 649.112 -139.034 639.329 -136.175C629.55 -133.303 632.814 -135.693 621.939 -133.303C611.064 -130.922 612.155 -127.581 605.635 -131.392C599.113 -135.214 594.768 -136.173 591.504 -136.173C588.242 -136.173 585.144 -135.901 581.486 -139.241C577.828 -142.592 578.46 -139.034 565.416 -139.994C552.374 -140.945 553.467 -143.806 542.594 -142.855C531.721 -141.905 537.868 -138.084 531.721 -141.905C525.573 -145.716 527.376 -145.716 519.766 -146.677C512.157 -147.627 517.7 -151.777 508.897 -148.588C500.093 -145.387 494.92 -142.111 488.246 -144.766C481.57 -147.42 479.997 -146.3 474.89 -143.617C469.784 -140.945 468.68 -142.855 459.985 -139.994C451.287 -137.123 451.289 -135.214 442.594 -133.303C433.896 -131.392 425.357 -130.374 420.854 -130.442C416.35 -130.508 409.979 -128.531 414.33 -125.67C418.679 -122.799 415.421 -120.888 418.679 -118.979C421.939 -117.079 426.288 -118.988 424.114 -115.166C421.939 -111.346 422.346 -110.394 415.419 -110.394C408.492 -110.394 414.33 -113.257 408.897 -113.257C403.461 -113.257 405.637 -113.257 399.115 -112.296C392.593 -111.346 393.922 -111.787 387.279 -110.131C380.638 -108.475 379.544 -111.346 376.287 -107.525C373.029 -103.703 375.2 -104.664 374.113 -102.753C373.029 -100.842 369.771 -97.0205 378.464 -97.9725C387.157 -98.9313 388.246 -100.842 394.766 -97.9725C401.286 -95.1115 411.074 -94.1596 398.028 -92.2505C384.984 -90.3397 377.471 -90.3397 374.704 -89.3791C371.94 -88.4289 373.029 -91.2899 365.42 -86.5181C357.809 -81.7463 346.941 -83.6571 346.941 -79.8355C346.941 -76.0139 333.899 -76.9658 339.332 -73.153C344.765 -69.3331 351.291 -66.4721 343.681 -67.4223C336.07 -68.3725 324.824 -72.9838 333.896 -65.5115C342.971 -58.0391 348.828 -64.1272 345.854 -60.7397C342.882 -57.3522 331.727 -51.1875 340.421 -53.0983C349.116 -55.009 346.945 -51.1875 353.465 -53.0983C359.985 -55.009 358.251 -60.2603 362.156 -55.009C366.061 -49.7561 369.765 -53.0983 361.069 -48.3265C352.376 -43.5547 356.868 -41.0982 344.765 -39.7331C332.665 -38.368 332.803 -36.8634 324.112 -34.0024C315.421 -31.1397 302.537 -32.4769 302.02 -30.1808C301.503 -27.8934 292.751 -21.3992 289.333 -23.4983C285.913 -25.5974 269.156 -17.5322 270.853 -17.7676ZM1821.38 -171.974C1826.27 -172.455 1824.1 -175.316 1831.71 -176.275C1839.31 -177.225 1843.31 -180.086 1847.83 -180.086C1852.36 -180.086 1855.36 -180.039 1859.83 -181.499C1864.32 -182.958 1867.07 -184.462 1865.41 -185.819C1863.75 -187.173 1858.92 -185.179 1856.37 -185.819C1853.83 -186.459 1852.37 -184.869 1846.92 -183.908C1841.49 -182.958 1838.22 -182.008 1830.62 -182.008C1823.02 -182.008 1821.46 -181.997 1815.72 -180.088C1809.97 -178.186 1809.95 -179.127 1803.45 -173.406C1796.94 -167.692 1798.01 -163.862 1795.84 -162.901C1793.67 -161.951 1793.08 -157.915 1790.4 -154.31C1787.73 -150.713 1784.97 -151.447 1791.49 -149.538C1798.02 -147.627 1798.01 -145.725 1807.8 -144.766C1817.58 -143.807 1816.5 -142.855 1821.93 -143.807C1827.36 -144.766 1829.4 -141.593 1828.45 -143.807C1827.51 -146.027 1818.67 -147.298 1816.49 -148.586C1814.31 -149.867 1811.06 -151.449 1809.97 -154.31C1808.88 -157.179 1808.88 -159.09 1812.14 -161.951C1815.41 -164.812 1816.49 -166.723 1817.58 -167.684C1818.67 -168.634 1821.38 -171.974 1821.38 -171.974ZM1781.71 -135.212C1778.45 -135.212 1771.02 -133.943 1776.28 -132.353C1781.54 -130.752 1783.89 -127.581 1786.06 -130.442C1788.23 -133.301 1781.71 -135.212 1781.71 -135.212ZM1994.75 -206.825C1990.14 -206.825 1991.49 -210.647 1984.96 -211.606C1978.45 -212.558 1969.76 -211.606 1967.58 -210.647C1965.4 -209.695 1963.22 -205.875 1970.84 -204.925C1978.45 -203.964 1976.27 -204.915 1987.14 -202.054C1998.01 -199.193 2005.14 -198.232 2011.06 -198.232C2016.97 -198.232 2025.19 -192.501 2019.76 -198.232C2014.31 -203.964 2014.31 -205.875 2008.88 -205.875C2003.45 -205.875 2001.27 -206.825 1994.75 -206.825ZM2045.84 -199.193C2036.05 -202.054 2032.8 -203.964 2029.53 -202.054C2026.27 -200.143 2026.27 -192.501 2030.62 -193.462C2034.97 -194.412 2040.4 -196.002 2047.47 -195.683C2054.54 -195.373 2056.7 -192.51 2054.54 -195.373C2052.36 -198.232 2045.84 -199.193 2045.84 -199.193ZM1590.4 -206.825C1582.81 -207.784 1567.59 -215.419 1574.11 -207.784C1580.63 -200.143 1588.24 -203.004 1592.59 -202.054C1596.93 -201.103 1606.71 -201.095 1613.24 -203.004C1619.75 -204.925 1632.8 -205.875 1617.59 -206.825C1602.36 -207.784 1590.4 -206.825 1590.4 -206.825Z" fill="#29303F"/>
<path d="M683.119 106.029C683.663 105.551 685.849 106.988 685.849 105.069C685.849 103.149 685.86 103.149 684.756 102.189C683.657 101.229 683.119 101.711 681.483 101.229C679.84 100.751 680.389 101.229 678.747 101.229C677.109 101.229 674.961 100.269 675.214 101.229C675.472 102.189 675.472 101.711 674.923 103.149C674.379 104.592 675.472 105.069 673.835 105.069C672.193 105.069 671.1 103.626 670.556 105.069C670.007 106.506 669.463 105.551 670.007 107.466C670.556 109.386 669.463 108.426 670.556 109.386C671.65 110.346 671.65 110.346 671.1 111.306C670.556 112.266 671.65 112.266 670.007 113.703C668.37 115.145 664.998 116.034 667.961 116.583C670.922 117.132 672.743 115.623 674.923 115.145C677.109 114.663 677.109 114.663 679.84 113.703C682.575 112.743 683.663 112.743 683.663 111.065C683.663 109.386 683.119 106.988 683.119 106.506V106.029ZM773.797 91.1573C775.32 89.6962 774.346 89.7146 773.253 90.1973C772.16 90.6747 770.523 90.6747 771.067 92.1173C771.611 93.5547 771.067 94.0365 771.611 94.0365C772.16 94.0365 772.709 94.0321 773.253 93.0774C773.797 92.1173 773.253 91.6347 773.253 91.6347L773.797 91.1573ZM651.434 58.0529C651.983 58.0529 652.533 55.6555 654.714 56.6155C656.9 57.5746 656.356 57.0972 658.538 58.5347C660.723 59.9721 662.36 59.4947 661.272 60.9321C660.179 62.3748 660.723 62.8522 659.086 63.8122C657.444 64.7722 656.356 66.2096 654.714 65.9679C653.077 65.7314 654.294 65.254 649.798 66.6914C645.301 68.1288 645.635 68.7201 644.413 68.6115C643.19 68.4976 643.787 69.0889 640.514 68.1297C637.234 67.1697 637.234 66.6914 634.504 66.6914C631.769 66.6914 629.388 67.1741 630.681 66.2096C631.973 65.2496 632.862 64.294 632.862 64.294C632.862 64.294 631.774 63.3348 630.681 63.3348C629.587 63.3348 628.215 64.7714 627.945 63.8122C627.682 62.8522 629.038 61.8921 631.225 61.8921C633.411 61.8921 635.597 60.4547 632.862 60.4547C630.131 60.4547 629.582 61.8921 627.945 60.9321C626.308 59.9721 626.852 58.5347 629.038 58.0529C631.225 57.5746 632.318 55.6554 633.955 57.0981C635.597 58.5347 633.955 59.0164 636.141 59.4947C638.327 59.9721 639.421 61.4148 639.421 59.9721C639.421 58.5355 640.514 58.5355 642.151 58.5355C643.787 58.5355 643.793 58.0529 646.523 58.0529H651.434ZM570.59 64.294C571.683 64.294 573.32 60.4547 574.414 60.4547C575.506 60.4547 578.786 59.4947 581.516 59.4947C584.246 59.4947 585.189 60.4547 588.069 59.0173C590.956 57.5746 592.436 56.6155 594.079 56.1372C595.721 55.6554 597.154 53.258 599.986 52.5389C602.819 51.8206 607.972 49.2436 611.015 49.9005C614.057 50.5531 621.138 49.6167 622.485 48.4579C623.831 47.3042 626.308 45.1013 629.038 44.8647C631.769 44.623 637.347 44.1465 636.141 43.6638C634.934 43.1821 635.048 42.893 630.131 42.7984C625.214 42.7038 625.214 43.1812 623.034 42.2212C620.848 41.2664 617.568 40.3064 620.848 40.3064C624.122 40.3064 625.548 41.0395 626.857 39.8246C628.166 38.6088 628.806 37.7004 630.131 39.3463C631.461 40.9922 630.497 40.4675 633.136 41.2664C635.78 42.0652 639.965 43.1864 639.421 41.2664C638.871 39.3463 639.421 38.8637 638.327 37.9089C637.234 36.9489 636.141 36.4671 633.954 35.9888C631.769 35.5071 629.038 34.0697 629.038 34.0697C629.038 34.0697 632.318 32.1496 632.862 33.587C633.41 35.0288 637.783 37.4263 638.871 35.5071C639.965 33.587 641.606 31.6722 639.421 32.1496C637.234 32.6314 632.862 31.6678 634.504 31.1896C636.141 30.7122 638.327 32.1496 639.965 31.6713C641.601 31.1896 642.425 34.0697 643.787 31.6713C645.155 29.2695 644.337 27.8321 645.43 28.3104C646.523 28.7921 652.527 29.2695 650.341 27.8321C648.16 26.3956 646.092 24.4755 647.67 24.9529C649.248 25.4347 649.797 25.9129 649.248 23.9929C648.704 22.0728 648.704 23.5155 645.974 22.0728C643.243 20.6363 642.942 19.7989 645.974 20.158C649.006 20.5171 654.714 22.0772 653.62 20.158C652.527 18.2379 649.248 19.198 649.248 18.2379C649.248 17.2779 648.16 17.2779 649.797 17.2779C651.434 17.2779 654.164 16.8005 650.341 16.3179C646.523 15.8405 645.974 15.3587 647.611 14.3987C649.247 13.4387 651.165 13.4387 653.761 12.2421C656.351 11.0412 654.17 12.0012 657.993 10.5586C661.816 9.12202 663.308 7.68373 665.295 7.68373C667.276 7.68373 670.335 7.27729 672.333 6.09478C674.326 4.91226 674.961 5.55607 672.193 5.28628C669.425 5.01737 667.449 2.88446 663.814 3.84449C660.179 4.80452 661.854 6.7237 658.536 6.24631C655.225 5.76455 657.993 4.32625 653.62 5.28628C649.248 6.24631 651.983 5.35285 648.161 6.5161C644.337 7.68373 638.871 10.0812 642.694 8.16112C646.523 6.24631 650.923 5.28628 648.704 4.80452C646.485 4.32625 646.453 4.2553 643.243 4.80452C640.029 5.35285 632.506 7.60314 635.867 5.96251C639.231 4.32625 641.757 3.84449 637.234 4.32625C632.716 4.80452 616.529 6.82794 620.848 5.28628C625.161 3.74025 650.503 4.32625 650.346 3.60798C650.19 2.88446 647.104 -0.950409 641.898 0.487009C636.685 1.92443 630.993 0.487009 629.038 0.487009C627.089 0.487009 626.852 -0.151551 623.303 0.165539C619.754 0.487009 617.341 -0.946029 614.289 0.487009C611.241 1.92005 606.949 0.00962143 607.838 0.964396C608.726 1.92443 610.164 1.44616 608.134 1.92443C606.099 2.40619 607.154 1.92443 602.802 1.92443C598.452 1.92443 597.278 1.44704 593.767 1.44704C590.256 1.44704 584.246 0.00962132 586.432 1.92443C588.619 3.84449 592.221 6.14646 588.619 5.28628C585.01 4.42085 586.352 4.32625 582.066 3.84449C577.773 3.3671 574.117 1.92443 574.812 3.3671C575.506 4.80364 577.988 6.84721 573.87 5.76455C569.744 4.68101 571.683 2.88446 567.859 4.32625C564.036 5.76455 565.13 3.84449 561.85 3.84449C558.571 3.84449 556.874 4.74232 552.566 4.80452C548.253 4.86583 546.955 4.22727 544.37 5.28628C541.791 6.34091 542.184 6.7237 540.547 6.7237C538.91 6.7237 538.235 5.72601 534.681 7.20196C531.127 8.6823 523.066 8.64376 524.705 9.12115C526.344 9.60291 531.808 8.63938 529.076 10.5586C526.344 12.4786 522.538 13.387 520.76 13.4387C518.984 13.4956 517.364 13.6699 514.328 13.9204C511.293 14.1666 511.219 14.1858 508.766 14.3987C506.313 14.6159 501.762 13.4387 503.402 15.3587C505.041 17.2779 505.041 17.2779 507.773 17.7605C510.504 18.2379 514.393 16.049 515.726 16.9047C517.058 17.7605 521.428 17.2779 518.697 18.2379C515.966 19.198 512.78 19.5098 509.802 19.198C506.824 18.8861 501.764 19.0368 504.494 19.6753C507.224 20.3139 512.721 19.6753 510.246 21.118C507.773 22.5546 506.489 24.4746 512.32 23.5155C518.151 22.5554 518.54 22.5125 521.427 22.5554C524.314 22.5975 524.063 21.2923 529.076 22.0737C534.088 22.8576 535.63 24.4755 536.723 25.4347C537.816 26.3947 537.816 28.3095 538.91 30.7122C540.004 33.1096 542.184 32.627 540.547 34.0697C538.91 35.5062 535.084 35.9845 536.176 37.4263C537.27 38.8637 536.724 39.3463 538.362 38.8646C540.004 38.3863 541.641 37.4263 542.184 37.9089C542.733 38.3863 543.826 37.9089 544.37 38.8637C544.914 39.8237 546.557 38.8689 546.557 40.3064C546.557 41.7438 550.622 41.3514 547.65 41.7438C544.672 42.1406 544.37 42.0328 543.277 41.6492C542.184 41.2664 542.733 41.7438 540.272 41.2664C537.816 40.7846 535.63 41.2664 536.176 41.2664C536.723 41.2664 539.454 43.3984 541.091 43.5316C542.733 43.663 544.914 42.7038 545.464 43.663C546.013 44.6239 545.464 45.583 545.464 46.0613C545.464 46.543 546.551 45.583 544.914 47.0213C543.277 48.4579 541.641 49.4179 541.641 49.4179C541.641 49.4179 534.896 47.9813 536.902 49.1814C538.91 50.3779 536.725 49.9005 535.631 50.8606C534.538 51.8206 532.355 53.258 532.355 53.258C532.355 53.258 531.809 54.218 532.9 54.6945C533.991 55.1772 532.9 53.258 531.808 55.1772C530.714 57.0972 530.168 56.6155 530.714 57.5746C531.26 58.5347 530.168 58.0529 531.808 59.4947C533.446 60.9321 533.992 60.4547 533.446 62.3748C532.9 64.294 530.715 65.7314 533.446 65.2496C536.176 64.7722 538.362 63.3348 537.27 64.2948C536.176 65.2496 533.446 65.2496 533.446 66.2096C533.446 67.1697 531.809 65.7314 533.446 67.6515C535.084 69.5663 536.18 68.1288 535.631 70.0489C535.084 71.969 534.537 71.4863 536.176 72.4463C537.816 73.4064 535.63 74.8438 537.27 74.8438C538.91 74.8438 538.91 74.3664 538.362 75.3256C537.815 76.2856 536.723 75.8038 538.91 77.2456C541.091 78.683 543.277 78.2056 543.277 78.2056C543.277 78.2056 540.547 79.1657 544.37 78.2056C548.194 77.2456 549.837 75.3264 548.194 77.2456C546.557 79.1657 546.557 79.1657 548.194 80.1205C549.831 81.0805 548.738 81.5631 550.923 81.5631C553.11 81.5631 550.127 82.3199 553.659 82.0405C557.192 81.762 555.841 80.6031 556.39 80.1205C556.934 79.6431 557.478 80.6031 559.119 78.2056C560.757 75.8038 561.306 76.7638 561.85 74.3664C562.399 71.969 559.663 70.5263 562.399 70.5263C565.13 70.5263 565.13 70.0489 566.767 69.0897C568.409 68.1288 571.592 67.2546 569.502 65.7314C567.408 64.209 566.594 63.3296 568.592 63.8122L570.59 64.294ZM425.834 71.969C425.834 71.969 428.018 71.969 428.018 71.0089C428.018 70.0489 428.02 70.5272 425.834 70.5272C423.65 70.5272 422.554 69.3587 421.736 71.0089C420.917 72.6592 420.261 73.6946 421.736 73.4064C423.211 73.1173 425.834 71.969 425.834 71.969ZM432.388 73.4064C431.842 73.8881 429.636 75.0943 431.842 74.8429C434.048 74.5976 433.481 75.3264 434.574 74.3664C435.667 73.4064 437.853 72.4463 435.667 72.4463C433.481 72.4463 432.388 73.4064 432.388 73.4064ZM431.842 66.2096C431.842 66.2096 431.842 64.7714 434.028 65.7314C436.212 66.6914 435.665 66.2096 434.028 67.1697C432.388 68.1288 433.482 68.1288 431.297 67.6515C429.112 67.1697 431.295 67.6515 429.657 66.6914C428.018 65.7314 428.517 65.0324 426.38 66.2096C424.243 67.3922 425.399 67.2257 422.556 68.1288C419.713 69.0319 421.464 70.0489 419.279 69.5663C417.093 69.0889 418.867 67.9826 418.186 67.6515C417.504 67.3203 417.64 68.1288 415.455 67.6515C413.27 67.1697 414.412 66.8622 416.274 65.7314C418.137 64.597 418.317 64.3562 420.371 62.3748C422.425 60.3882 424.195 57.5746 424.741 59.4947C425.288 61.4148 426.294 57.6929 427.472 59.9721C428.652 62.2565 429.657 62.3748 430.75 62.8522C431.842 63.3339 434.028 63.8122 433.481 64.294C432.936 64.7714 431.842 66.2096 431.842 66.2096ZM443.861 68.4512C441.675 68.1288 440.583 67.6515 441.675 68.6115C442.769 69.5663 444.952 69.7274 444.406 69.0889L443.861 68.4512ZM446.591 64.7722C447.139 64.7722 447.14 65.7323 449.323 65.2496C451.509 64.7722 454.288 63.9865 455.332 64.2948C456.376 64.597 458.064 63.3296 458.609 63.8122C459.155 64.294 460.795 63.8122 461.887 65.2487C462.98 66.6914 466.254 65.7323 465.163 67.1697C464.073 68.6115 463.527 68.1288 464.073 69.0889C464.617 70.0489 464.617 69.0889 466.257 70.0489C467.895 71.0089 469.534 69.5715 470.628 71.0089C471.72 72.4463 472.814 72.4463 475.545 73.4064C478.274 74.3664 479.914 75.3264 480.46 74.3664C481.005 73.4064 482.644 74.3664 480.46 72.4463C478.274 70.5263 477.765 70.5596 476.635 69.5671C475.505 68.5782 473.904 69.0889 474.996 68.1288C476.089 67.1688 476.634 66.6923 478.274 67.6515C479.914 68.6115 481.006 69.0889 482.644 70.0489C484.284 71.0089 485.376 70.0489 485.376 70.0489C485.376 70.0489 485.922 70.0489 487.015 69.0889C488.108 68.1288 490.293 70.5263 489.201 67.1697C488.108 63.8122 490.293 64.2896 488.108 63.3348C485.922 62.3748 484.28 62.3748 483.736 60.9321C483.191 59.4956 484.83 57.5746 484.83 57.5746C484.83 57.5746 488.15 55.8867 489.499 56.2747C490.848 56.6672 490.291 57.0929 491.384 59.0164C492.477 60.9321 493.024 63.3348 494.663 61.8921C496.3 60.4547 496.848 59.9721 498.487 59.9721C500.124 59.9721 502.855 58.0573 502.855 57.5746C502.855 57.0972 503.949 58.5347 505.041 57.0972C506.133 55.6554 508.866 56.1372 505.587 55.1781C502.309 54.218 502.313 55.1781 500.672 53.7398C499.032 52.298 500.794 53.0355 498.487 51.3379C496.178 49.6456 495.755 51.3379 494.116 50.8606C492.477 50.3788 490.29 49.4179 489.746 48.9405C489.201 48.4587 490.291 47.504 490.291 47.504C490.291 47.504 489.856 47.1483 491.384 47.0213C492.913 46.8934 495.207 47.0213 495.207 47.0213C495.207 47.0213 491.931 46.5387 491.931 45.583C491.931 44.6239 494.236 44.3637 495.207 44.1412C496.178 43.924 495.208 43.1812 493.569 42.7038C491.931 42.222 493.569 41.7438 492.204 41.2664C490.838 40.7846 490.29 41.2664 488.652 41.2664C487.015 41.2664 488.738 41.375 487.015 39.8237C485.292 38.2733 485.456 37.4832 483.191 37.9089C480.925 38.3294 480.461 39.8237 479.914 38.3863C479.366 36.9498 480.461 38.0552 478.274 35.8233C476.089 33.587 476.089 34.5471 474.996 34.5471C473.903 34.5471 474.67 33.8375 472.266 34.0697C469.863 34.3009 469.807 33.3514 468.441 35.0288C467.076 36.708 466.256 36.9445 464.617 36.4671C462.98 35.9888 464.616 36.9489 462.432 35.9888C460.247 35.0288 460.247 34.0697 461.34 33.587C462.432 33.1096 463.524 32.6322 462.432 31.6722C461.34 30.7122 461.675 30.7122 459.897 30.7122C458.121 30.7122 455.332 30.7069 453.693 31.1896C452.054 31.6713 449.871 30.7122 448.231 32.6322C446.591 34.5471 443.928 35.6437 444.952 36.4671C445.977 37.2896 446.347 39.8763 444.406 38.8637C442.466 37.8564 441.737 37.1617 442.769 35.5071C443.799 33.8568 443.86 32.627 446.045 32.1496C448.231 31.6722 451.41 30.3627 451.507 29.9887C451.604 29.6199 447.751 30.0973 446.045 30.2295C444.339 30.3671 443.313 30.7069 441.128 31.1896C438.945 31.6713 441.675 30.7122 436.758 33.1096C431.842 35.5071 431.843 35.9845 431.297 36.4671C430.75 36.9489 428.145 36.8403 429.657 37.9089C431.17 38.9732 436.405 39.3463 435.119 39.8237C433.834 40.3064 434.574 40.789 432.388 40.3064C430.204 39.8246 429.112 39.3463 429.112 40.3064C429.112 41.2664 429.056 41.7438 431.297 42.2212C433.538 42.7029 435.667 41.2664 437.306 42.2212C438.945 43.1812 441.677 41.7438 443.861 42.7029C446.045 43.6638 446.044 44.6239 448.776 44.1412C451.509 43.6638 452.601 43.1864 454.239 43.6638C455.877 44.1412 460.248 44.6239 459.702 43.1821C459.155 41.7438 460.795 41.2664 461.887 42.7038C462.98 44.1403 465.711 45.1012 465.711 46.0613C465.711 47.0213 459.703 48.4587 462.98 47.9805C466.257 47.5031 468.988 48.4587 469.534 48.9405C470.08 49.4179 474.62 49.9618 472.811 51.8206C471.004 53.6741 467.74 53.3763 470.08 54.6954C472.42 56.019 471.087 54.776 474.451 55.6554C477.815 56.5349 482.945 55.2814 478.82 56.6155C474.695 57.9487 475.23 61.032 473.358 58.5347C471.487 56.0382 472.812 54.6954 469.534 55.6554C466.257 56.6155 465.709 55.6555 463.525 58.0529C461.34 60.4547 464.618 59.9721 460.794 60.9321C456.97 61.8921 459.154 62.8005 454.785 61.8694C450.415 60.9321 452.602 59.9773 449.323 61.8921C446.045 63.8122 446.591 64.7722 446.591 64.7722ZM419.279 35.9888C421.199 35.3844 418.736 34.0697 421.465 34.0697C424.195 34.0697 424.56 34.9342 426.927 34.0697C429.296 33.2042 426.926 34.0697 431.842 32.1496C436.758 30.2295 438.055 31.4927 436.758 30.2295C435.463 28.9673 434.76 30.608 431.842 29.7522C428.926 28.8964 432.013 27.0332 428.018 28.3095C424.025 29.591 423.101 29.7522 422.556 30.2295C422.01 30.7113 420.917 30.7113 419.279 31.6722C417.64 32.6322 417.093 32.1496 417.093 33.1088C417.093 34.0697 419.279 35.9888 419.279 35.9888ZM410.539 33.1096C412.177 32.1496 414.909 31.1896 414.909 31.1896C414.909 31.1896 417.093 29.2748 414.909 29.7522C412.723 30.2295 412.177 30.7069 410.539 30.2295C408.9 29.7522 408.067 29.3221 405.624 29.9887C403.18 30.6596 405.622 30.7122 404.529 31.6722C403.436 32.6322 401.254 30.2295 401.799 31.6722C402.345 33.1088 403.813 34.5471 401.713 34.3105C399.614 34.0697 400.462 34.8974 398.521 34.0697C396.58 33.2419 393.607 33.1096 395.792 34.5471C397.975 35.9888 398.655 35.2566 399.066 36.4671C399.479 37.682 395.214 39.8237 400.16 38.8637C405.105 37.9089 407.26 37.9045 408.353 37.4271C409.447 36.9489 411.084 36.9489 411.631 35.5071C412.177 34.0697 410.539 33.1096 410.539 33.1096ZM400.16 44.1412C398.521 44.1412 397.428 44.1412 395.79 45.1012C394.151 46.0613 395.79 45.1012 393.605 46.543C391.42 47.9805 391.49 48.7092 394.151 48.4587C396.812 48.2126 399.068 49.9005 400.707 48.9405C402.345 47.9805 401.25 47.8018 403.436 46.6893C405.624 45.583 403.983 43.6638 402.345 44.6239C400.707 45.583 400.16 44.6239 400.16 44.6239V44.1412ZM381.042 44.6239C383.225 45.1012 382.68 44.1456 384.865 44.6239C387.05 45.1012 389.235 46.0604 389.235 44.6239C389.235 43.1812 390.326 43.6638 387.595 42.7038C384.865 41.7438 384.865 43.1812 383.773 41.7438C382.68 40.3064 384.318 39.3463 384.865 38.3863C385.411 37.4263 385.411 36.9498 385.958 35.9888C386.503 35.0288 387.049 34.0697 385.958 33.1096C384.865 32.1496 387.597 31.1896 383.773 32.1496C379.948 33.1096 381.585 32.1496 379.948 33.587C378.31 35.0288 377.763 36.6511 377.218 37.4263C376.673 38.2024 373.94 38.8646 374.486 37.4263C375.031 35.9897 376.672 35.5115 375.579 34.5471C374.486 33.587 373.939 33.1096 372.847 33.1096C371.754 33.1096 371.756 34.5462 371.208 34.5462C370.662 34.5462 367.536 36.1929 367.385 35.5071C367.233 34.8212 367.387 36.2586 367.233 34.8212C367.079 33.3838 367.165 33.1096 366.291 33.1096C365.419 33.1096 362.469 34.5462 361.376 34.5462C360.284 34.5462 360.831 35.5071 361.376 33.587C361.922 31.6722 364.853 31.0994 361.922 31.6722C358.991 32.2442 358.55 32.3572 356.1 32.7882C353.651 33.2174 356.404 32.0077 350.997 33.1096C345.592 34.2116 348.539 34.7879 346.081 35.5071C343.624 36.2254 342.563 35.3748 341.863 36.6414C341.164 37.9089 343.349 36.9489 343.896 37.9089C344.443 38.8637 347.172 36.9489 343.348 38.8637C339.526 40.7837 336.257 40.0602 339.526 40.7837C342.794 41.5073 346.628 41.2655 348.813 41.2655C350.997 41.2655 353.46 40.3064 353.868 41.7438C354.275 43.1812 353.086 42.6092 349.359 42.7038C345.631 42.8028 346.184 42.6276 343.175 43.0393C340.166 43.4554 337.887 42.7038 338.16 44.1412C338.433 45.583 340.272 47.0774 342.256 46.543C344.241 46.0043 347.173 45.1012 346.081 46.543C344.988 47.9805 342.18 48.9405 346.315 48.9405C350.451 48.9405 353.832 48.3589 356.384 48.4587C358.938 48.5621 359.19 45.8808 361.922 46.6893C364.654 47.504 368.584 44.3348 369.57 45.583C370.553 46.8269 370.66 47.9805 373.939 47.9805C377.218 47.9805 378.857 47.9805 381.042 47.5031C383.225 47.0213 383.836 46.1226 381.588 46.0613C379.338 46.0043 381.042 44.6239 381.042 44.6239Z" fill="#29303F"/>
<path d="M351.543 28.7921C348.265 27.8321 348.3 26.872 345.278 27.3547C342.256 27.8321 341.869 26.9623 339.059 27.8803C336.249 28.7921 336.785 27.8934 334.912 29.6479C333.04 31.398 332.589 30.7122 330.322 32.1496C328.055 33.587 327.509 34.547 325.324 35.0288C323.138 35.5071 323.215 36.192 324.27 37.2887C325.324 38.3863 323.139 40.3063 325.324 39.8237C327.507 39.3463 327.275 40.2117 329.147 39.3463C331.02 38.4765 330.253 40.3063 334.616 38.3863C338.98 36.4671 338.307 37.0951 341.375 35.8233C344.443 34.547 341.428 34.6084 346.612 33.3505C351.794 32.0883 351.727 31.7948 355.201 31.6722C358.673 31.5443 361.924 33.1087 360.284 31.1896C358.645 29.2695 358.643 28.7921 355.912 28.7921H351.543ZM351.543 23.0372C354.281 22.8813 354.821 22.0737 356.459 22.5554C358.098 23.0372 358.644 23.5154 359.737 23.0372C360.829 22.5554 360.964 23.0328 363.562 22.0737C366.159 21.118 370.114 18.7206 368.477 20.6354C366.838 22.5554 367.411 21.5954 370.116 21.5954C372.823 21.5954 372.301 21.5954 373.393 20.6354C374.486 19.6753 373.3 19.8172 375.806 19.028C378.31 18.2379 380.873 17.7316 377.218 17.7605C373.562 17.7842 372.301 18.6207 371.208 18.4271C370.116 18.2379 369.192 16.7628 366.838 18.2379C364.487 19.713 364.206 17.9024 361.922 19.1979C359.638 20.4891 360.941 20.6354 357.551 21.118C354.163 21.5954 348.636 23.1984 351.543 23.0372Z" fill="#29303F"/>
<path d="M383.225 24.4755C381.152 22.1717 382.779 21.118 379.948 21.118C377.117 21.118 381.042 20.6362 375.579 21.118C370.116 21.5954 373.394 23.5154 370.116 23.5154C366.838 23.5154 362.467 23.0337 364.653 24.4755C366.838 25.912 363.983 25.912 368.477 25.912C372.971 25.912 371.752 26.3903 373.939 25.912C376.126 25.4346 380.497 24.9528 377.218 25.4346C373.939 25.9129 370.116 24.4755 371.208 26.3946C372.301 28.3103 372.848 27.8321 374.486 27.8321C376.126 27.8321 377.217 27.8321 380.494 27.3547C383.773 26.8729 380.494 26.3946 385.956 26.3946C391.42 26.3946 392.513 27.3494 395.245 25.9129C397.975 24.4755 401.798 24.4755 398.521 23.9928C395.245 23.5154 393.058 24.4746 393.605 23.038C394.151 21.5954 397.974 20.158 394.697 20.6353C391.42 21.1171 388.141 19.1988 388.688 21.5954C389.235 23.9928 385.299 26.773 383.225 24.4755ZM390.327 18.4271C392.665 18.2379 394.152 17.7605 396.337 16.7961C398.521 15.8413 397.527 14.3986 395.245 15.3587C392.962 16.3187 390.875 16.4133 389.235 16.6069C387.595 16.7961 386.503 17.7561 387.595 18.2379C388.688 18.7153 390.327 18.4271 390.327 18.4271ZM398.521 15.0416C401.564 14.2278 404.965 13.6988 401.799 13.9204C398.633 14.1429 388.688 13.3396 392.785 13.8687C396.883 14.3986 398.521 15.0416 398.521 15.0416ZM408.9 21.5954C406.29 20.1247 403.984 19.6753 406.169 21.5954C408.353 23.5154 406.714 23.0372 409.445 23.9928C412.177 24.9528 412.177 22.0728 413.27 24.2337C414.363 26.3946 413.817 26.872 416.548 25.912C419.279 24.9528 418.185 25.912 420.917 24.4755C423.65 23.0372 429.476 21.8459 425.288 21.118C421.099 20.3848 422.556 20.1579 419.279 20.6362C416 21.118 418.809 20.4654 416.548 21.5954C414.286 22.7253 414.909 22.0728 412.723 22.0728C410.539 22.0728 408.9 21.118 408.9 21.118V21.5954ZM408.9 18.2379C408.9 18.2379 407.261 16.3178 407.261 17.2779C407.261 18.2379 408.9 20.1579 408.9 19.1979V18.2379ZM383.225 16.3187C383.773 17.2779 382.134 17.7605 384.318 17.2779C386.503 16.7961 387.595 17.2779 386.503 16.7961C385.411 16.3178 383.225 16.3187 383.225 16.3187ZM389.781 30.2295C389.781 30.2295 385.958 28.3103 387.05 30.7113L388.142 33.1096C388.142 33.1096 389.781 33.1096 391.42 32.1496C393.059 31.1895 389.781 30.2295 389.781 30.2295ZM429.657 24.4746C429.657 24.4746 425.834 22.8103 425.288 24.1207C424.742 25.4346 420.371 25.4346 424.195 26.3946C428.018 27.3547 430.825 28.376 431.297 26.3946C431.769 24.4089 429.657 24.4746 429.657 24.4746ZM431.842 19.6753C429.657 20.1571 429.659 20.6353 431.297 21.118C432.936 21.5954 435.667 22.5545 437.306 21.5954C438.945 20.6353 438.795 19.3591 436.758 19.6753C434.723 19.9968 431.842 19.6753 431.842 19.6753ZM422.01 15.3587C424.195 16.3178 420.371 16.3178 424.195 16.3178C428.018 16.3178 428.921 17.3541 428.563 15.3578C428.207 13.3624 430.722 13.6085 427.472 13.4386C424.223 13.2722 422.896 12.3227 421.736 12.2421C420.575 12.1571 417.639 12.4786 417.093 12.4786C416.548 12.4786 413.268 13.9204 416 14.3986C418.733 14.8804 411.532 15.3587 414.909 15.3587H422.01ZM470.628 30.7121C469.079 30.7121 465.711 30.2304 465.711 30.2304C465.711 30.2304 462.982 29.7477 464.073 31.1895C465.163 32.6322 464.071 31.1895 465.163 32.6322C466.257 34.0688 464.515 34.2203 468.13 33.3505C471.744 32.4807 471.028 32.9581 473.903 33.1096C476.779 33.2603 477.181 34.0696 476.089 32.6322C474.996 31.1895 472.266 30.7121 472.266 30.7121H470.628ZM453.693 24.4755C451.908 24.3003 452.602 23.9928 449.323 23.9928C446.045 23.9928 444.953 24.4746 445.499 23.5154C446.045 22.5554 448.777 23.9928 447.139 22.3136C445.499 20.6353 448.724 20.6353 445.499 20.6353C442.275 20.6353 442.222 20.588 440.498 20.8762C438.774 21.1653 437.853 21.5954 438.398 22.5554C438.945 23.5154 435.666 24.9528 435.666 25.9129C435.666 26.8729 434.028 26.3903 438.398 26.872C442.769 27.3547 442.768 26.872 444.952 27.3547C447.139 27.8321 451.395 27.8321 454.239 27.8321C457.083 27.8321 457.516 26.872 459.702 27.3547C461.887 27.8321 460.793 27.8321 463.525 27.8321C466.257 27.8321 468.441 28.3094 468.987 27.8321C469.534 27.3547 469.534 28.3094 471.173 26.872C472.811 25.4355 476.25 25.4355 472.811 24.4755C469.374 23.5154 469.118 23.5154 466.803 23.5154C464.488 23.5154 463.328 23.7992 460.247 23.9928C457.168 24.1917 453.693 24.4755 453.693 24.4755Z" fill="#29303F"/>
<path d="M455.332 21.5954H461.34C462.98 21.5954 464.071 22.0728 465.711 21.5954C467.349 21.118 467.896 21.118 470.628 21.118C473.358 21.118 473.384 19.4678 473.903 20.8763C474.423 22.2865 474.448 22.0728 476.089 22.0728C477.727 22.0728 480.461 22.0781 482.098 21.118C483.736 20.158 485.376 19.6754 483.191 19.6754C481.005 19.6754 481.005 18.7153 482.098 18.7153C483.191 18.7153 485.919 17.7606 486.467 17.2788C487.015 16.7962 483.879 15.1503 486.468 15.8405C489.058 16.5264 486.923 17.2779 490.291 16.7953C493.661 16.3188 492.012 16.9757 494.663 15.8405C497.313 14.7018 498.483 13.9213 497.392 13.4387C496.3 12.9613 491.928 12.0013 495.207 12.0013C498.487 12.0013 500.443 13.4431 502.309 12.0013C504.175 10.5586 505.299 9.60382 507.773 10.3221C510.246 11.0412 510.502 11.5186 512.688 10.5586C514.873 9.60382 514.188 9.69404 516.512 9.12205C518.836 8.55444 517.057 8.64379 521.428 8.16114C525.798 7.68376 527.637 6.97862 530.714 6.7246C533.792 6.47321 537.448 4.80454 533.992 5.28631C530.535 5.76457 526.879 4.23693 532.163 4.52074C537.448 4.80454 537.816 4.64862 541.091 4.48745C544.37 4.32715 547.101 4.32628 544.37 3.36625C541.641 2.40709 544.92 2.40709 540.548 2.40709C536.176 2.40709 532.9 2.88886 531.26 2.40709C529.622 1.92533 532.302 1.92533 525.499 1.92533C518.697 1.92533 519.242 1.92971 514.873 2.40709C510.504 2.88448 511.574 3.15427 508.319 2.40709C505.064 1.65992 507.771 0.964421 501.216 1.92533C494.663 2.88448 495.771 1.6932 491.384 3.36712C486.997 5.04017 488.142 3.51341 484.83 3.36712C481.517 3.21997 483.189 2.88448 478.274 4.32628C473.358 5.76457 471.49 4.60132 469.534 4.88425C467.578 5.17331 464.617 3.84451 465.711 6.24634C466.803 8.64379 466.258 7.68376 471.173 8.16114C476.089 8.64379 475.543 8.64379 479.366 8.64379C483.191 8.64379 487.623 8.38889 490.838 7.92552C494.052 7.45689 497.773 6.52576 496.3 7.20199C494.826 7.88259 493.415 8.53955 491.384 8.64379C489.353 8.74802 482.098 8.64379 483.191 9.60382C484.284 10.5586 485.922 10.0812 484.284 10.5586C482.644 11.0412 486.285 11.2637 481.552 10.3221C476.819 9.37607 471.773 7.67412 472.277 9.35855C472.781 11.0412 469.79 12.5076 473.358 12.4787C476.927 12.455 482.398 13.4387 479.366 13.4387C476.335 13.4387 474.919 14.3321 473.358 13.9204C471.797 13.5096 470.004 13.5526 468.13 13.7365C466.257 13.9204 460.25 13.9204 462.98 14.8805C465.711 15.8405 465.711 16.3188 466.803 16.7962C467.895 17.2779 470.379 18.238 468.987 18.238H465.711C464.073 18.238 466.323 17.7606 464.073 17.2779C461.823 16.7962 459.702 15.8414 458.609 16.7962C457.517 17.7606 460.25 18.238 458.609 18.7153C456.97 19.198 456.623 18.598 454.239 19.198C451.857 19.7936 448.232 20.6354 449.323 21.118C450.415 21.5954 455.332 21.5954 455.332 21.5954Z" fill="#29303F"/>
<path d="M454.239 15.3587C454.785 15.3587 456.971 14.8805 458.609 14.6396C460.247 14.3987 460.793 13.9213 463.524 13.4387C466.257 12.9613 467.953 15.8361 468.441 12.9613C468.93 10.0812 468.442 10.0812 466.803 9.60382C465.163 9.12205 463.799 10.6199 462.432 8.64379C461.064 6.66241 461.886 6.24634 459.155 6.24634C456.425 6.24634 457.518 6.72372 454.239 7.20111C450.96 7.68375 450.415 6.72373 447.683 8.64379C444.952 10.5586 441.674 11.5239 444.952 12.0013C448.231 12.4787 454.239 12.0013 454.239 12.0013C454.239 12.0013 453.145 12.9613 450.96 12.9613C448.776 12.9613 444.952 12.0013 447.138 13.9204C449.323 15.8405 453.147 15.8405 453.147 15.8405L454.239 15.3587ZM419.279 96.9122C419.279 96.9122 420.558 95.0728 418.459 96.6757C416.36 98.2787 414.364 100.274 417.64 98.8314C420.917 97.394 422.009 98.354 422.556 97.394C423.104 96.4349 419.279 96.9122 419.279 96.9122ZM462.706 52.298C465.711 50.8606 465.711 51.8206 465.711 50.3779C465.711 48.9414 464.403 49.2436 462.432 49.9006C460.461 50.5575 459.156 50.8606 458.063 51.8206C456.97 52.7806 456.971 54.2181 459.701 53.7407C462.432 53.258 462.706 52.298 462.706 52.298ZM491.931 122.337C494.116 120.422 492.476 122.82 494.663 120.422C496.847 118.021 499.581 118.021 497.941 117.542C496.3 117.061 493.57 117.061 493.57 117.061L492.476 118.021C489.746 120.422 490.838 118.98 488.652 121.86C486.467 124.74 488.653 123.302 485.376 126.177C482.098 129.057 485.376 127.615 483.191 129.057C481.005 130.494 479.543 130.253 479.642 130.971C479.741 131.695 475.539 132.891 479.637 132.891H487.56C489.746 132.891 491.385 130.494 491.931 131.931C492.477 133.374 495.208 132.891 493.57 133.852C491.931 134.812 487.013 136.249 490.291 135.772C493.569 135.293 495.057 130.632 496.847 132.891C498.639 135.157 494.66 135.293 497.392 136.253C500.124 137.209 500.124 139.128 501.762 136.253C503.402 133.374 505.587 131.937 502.855 131.454C500.124 130.971 496.846 133.374 500.124 130.971C503.402 128.575 505.586 129.534 503.402 128.097C501.216 126.655 505.719 126.47 501.762 125.378C497.807 124.285 496.844 126.659 495.207 125.699C493.57 124.74 496.301 123.297 493.57 123.297C490.838 123.297 491.931 122.337 491.931 122.337ZM472.812 136.731C471.151 134.948 471.875 135.019 470.628 136.253C469.379 137.483 468.441 136.731 468.987 138.169C469.534 139.611 465.709 140.088 468.987 140.088C472.266 140.088 474.451 141.048 473.358 139.611C472.266 138.169 472.812 136.731 472.812 136.731ZM463.525 137.691C463.525 137.691 459.701 136.253 460.247 137.691C460.795 139.128 460.796 141.048 462.98 139.611C465.163 138.169 463.525 137.691 463.525 137.691ZM466.257 126.177C467.018 126.31 473.472 128.528 471.173 126.655C468.874 124.782 468.007 124.21 467.895 124.139C467.784 124.064 462.435 121.382 462.98 122.82C463.525 124.257 466.257 126.177 466.257 126.177ZM535.243 43.8715C534.538 43.1812 533.445 45.1013 535.084 45.1013C536.723 45.1013 537.368 45.4692 539.454 45.583C541.543 45.6969 542.766 44.9927 541.091 44.6519C539.422 44.3112 535.084 42.7038 535.084 42.7038L535.243 43.8715ZM437.306 14.4083C435.119 13.9213 430.204 14.8814 432.388 15.8405C434.574 16.7953 432.76 15.3587 435.666 16.7953C438.573 18.238 439.758 18.7153 440.35 17.9971C440.942 17.2788 439.491 18.7206 439.491 17.2788C439.491 15.8405 440.486 16.3564 440.492 15.6189C440.498 14.8805 437.306 14.4083 437.306 14.4083ZM373.939 243.71C373.939 243.71 372.424 241.9 370.116 241.79C367.81 241.687 367.384 241.313 366.291 240.353C365.2 239.393 365.2 239.875 363.015 239.393C360.829 238.915 362.553 239.393 360.284 238.915C358.014 238.433 359.975 238.433 357.125 238.674C354.275 238.915 353.958 239.554 351.543 239.393C349.129 239.237 349.905 238.915 347.72 240.831C345.535 242.75 340.995 244.727 344.988 244.193C348.98 243.658 348.813 243.233 349.905 242.75C350.997 242.273 352.757 240.353 354.275 240.353C355.792 240.353 357.509 239.086 357.005 240.353C356.501 241.62 353.729 241.313 356.459 242.273C359.19 243.233 361.055 242.419 363.015 243.233C364.974 244.046 364.229 244.67 366.899 244.911C369.569 245.148 369.024 243.71 370.116 246.108C371.208 248.509 371.752 248.028 373.939 248.988C376.126 249.947 378.311 248.988 376.126 250.429C373.939 251.867 370.662 252.344 372.847 252.344H379.403C381.042 252.344 380.301 253.787 383.225 252.827C386.15 251.867 385.958 252.827 387.05 251.867C388.142 250.907 390.874 250.907 387.869 249.947C384.865 248.988 384.317 250.425 382.133 248.509C379.948 246.59 380.497 247.068 378.31 246.108C376.126 245.148 373.939 243.71 373.939 243.71ZM392.512 254.842C394.151 255.707 395.242 256.662 394.697 257.622C394.151 258.582 397.43 258.582 394.151 258.582C390.873 258.582 390.873 259.059 388.688 258.582C386.504 258.104 384.318 259.541 387.595 259.541C390.873 259.541 390.869 260.265 393.059 260.024C395.25 259.783 395.79 259.064 396.883 260.501C397.975 261.938 396.882 265.301 399.067 262.421C401.253 259.542 402.157 257.177 402.891 259.064C403.624 260.95 400.454 258.738 405.002 259.196C409.548 259.65 413.152 261.357 412.177 259.064C411.202 256.766 409.955 257.39 408.9 256.184C407.847 254.978 408.251 254.652 405.624 253.787C402.997 252.921 402.891 251.389 399.615 252.344C396.337 253.304 397.913 252.586 394.697 252.344C391.482 252.108 391.709 253.56 392.512 253.787C393.315 254.009 392.512 254.842 392.512 254.842ZM376.126 259.542C375.942 259.501 375.761 259.457 375.58 259.409C373.565 258.87 375.38 258.6 372.847 258.823C370.116 259.064 368.478 258.582 370.116 260.024C371.755 261.461 372.848 261.944 374.486 261.461C376.126 260.984 377.764 262.898 377.764 261.461C377.764 260.024 376.126 259.542 376.126 259.542ZM419.173 258.742C418.58 259.13 414.91 260.984 417.64 260.984H422.556C422.556 260.984 427.064 260.747 424.801 259.783C422.537 258.813 421.04 258.582 421.04 258.582L419.173 258.742Z" fill="#29303F"/>
<path d="M353.183 244.67C352.09 243.71 349.905 244.67 350.451 245.148C350.997 245.63 350.997 247.549 352.09 246.108L353.183 244.67ZM375.305 230.518C375.305 230.518 372.301 230.707 372.847 231.695C373.394 232.679 373.394 233.639 374.487 233.156C375.579 232.679 375.305 230.518 375.305 230.518ZM375.031 234.593C375.031 235.553 376.376 238.475 376.673 236.513C376.969 234.556 376.126 233.639 376.126 233.639L375.031 234.593ZM392.512 246.108C391.42 247.068 391.42 247.55 391.42 247.55C391.42 247.55 392.712 250.321 393.059 248.028C393.406 245.739 392.512 246.108 392.512 246.108ZM385.956 236.995C385.956 237.955 384.864 237.473 385.956 238.433C387.05 239.393 389.782 240.83 387.869 238.915L385.956 236.995ZM379.534 223.197C378.856 222.602 375.032 220.204 377.218 222.124C379.403 224.044 378.31 224.682 378.31 225.321C378.31 225.964 379.959 228.181 380.227 226.361C380.494 224.541 379.534 223.197 379.534 223.197ZM381.588 228.839C381.588 228.839 381.585 232.679 382.133 231.237C382.68 229.798 381.588 228.839 381.588 228.839ZM384.865 232.196C385.035 233.964 383.579 234.149 384.865 233.639C386.15 233.123 384.865 232.196 384.865 232.196ZM375.031 223.084C373.939 223.084 370.265 224.65 372.23 224.228C373.341 223.989 374.458 223.767 375.579 223.562L375.031 223.084ZM441.675 291.686C440.583 292.164 440.038 292.646 439.491 293.601C438.945 294.566 440.278 296.055 441.128 294.566C441.979 293.072 441.675 291.686 441.675 291.686ZM441.675 280.649C441.675 280.649 440.632 283.596 441.675 282.092C442.72 280.588 441.675 280.649 441.675 280.649ZM442.222 275.373C442.222 275.855 442.769 276.815 442.769 275.855C442.769 274.895 441.675 274.895 441.675 274.895L442.222 275.373ZM310.028 342.537C307.297 343.497 302.381 344.457 307.297 343.497C312.213 342.537 315.491 342.537 312.759 341.577C310.028 340.617 307.844 342.055 307.844 342.055L310.028 342.537ZM154.43 38.1358C152.886 38.3057 152.378 38.2917 151.723 38.5808C151.067 38.8637 147.503 39.4883 148.95 40.0366C150.397 40.5849 149.274 40.2451 152.63 40.0366C155.985 39.8237 156.906 39.8763 157.538 39.37C158.17 38.8637 154.741 37.9089 154.741 37.9089L154.43 38.1358ZM137.413 49.9006C136.205 48.1697 137.413 47.9805 135.773 47.9805C134.134 47.9805 132.314 48.9405 132.314 48.9405C132.314 48.9405 131.402 49.4179 128.126 51.338C124.849 53.258 125.242 52.856 123.21 54.1235C121.177 55.3857 120.609 56.1381 118.905 57.0973C117.2 58.052 114.743 59.1119 113.787 59.7829C112.83 60.4548 107.862 62.3985 110.101 61.8922C112.339 61.3911 113.208 61.244 115.562 59.9721C117.917 58.7002 120.071 56.9746 119.932 58.0529C119.793 59.1356 116.587 59.0743 118.532 59.7645C120.478 60.4547 123.771 58.7335 123.756 59.9721C123.742 61.2159 122.118 62.3748 123.21 62.8522C124.302 63.334 125.328 62.7953 125.634 63.5424C125.94 64.294 126.803 66.0774 128.875 65.2496C130.949 64.4219 129.674 63.5468 132.496 62.8522C135.317 62.162 136.607 60.7061 137.959 60.4548C139.31 60.2042 139.93 61.7363 142.598 60.5213C145.267 59.3108 147.607 61.3009 148.607 59.2206C149.608 57.1402 150.022 56.5297 148.336 55.6555C146.65 54.7857 143.078 53.7354 141.611 54.2181C140.143 54.6954 138.506 58.0529 138.506 56.6155C138.506 55.1772 138.504 54.6954 139.87 53.4989C141.236 52.298 141.837 52.213 139.897 51.0594C137.959 49.9006 137.413 49.9006 137.413 49.9006ZM133.714 67.1697C131.836 66.7624 131.556 66.384 129.765 67.1697C127.974 67.9545 127.58 68.6115 127.58 68.6115C127.58 68.6115 128.123 69.0889 131.402 69.0889C134.681 69.0889 138.735 71.0659 136.865 69.0889C134.995 67.1128 133.714 67.1697 133.714 67.1697ZM125.94 81.0805C124.926 81.0805 121.572 80.6031 123.756 81.5623C125.94 82.5232 125.725 82.9436 127.032 82.5232C128.341 82.1027 129.22 81.5632 129.766 81.0805C130.311 80.6031 125.94 81.0805 125.94 81.0805ZM160.764 90.2542C160.354 90.1973 160.193 91.0434 158.17 91.1573C156.146 91.2712 154.101 90.6747 153.951 91.6347C153.8 92.5947 150.086 93.1247 153.253 93.5548C156.42 93.9849 159.016 93.9279 160.171 93.0774C161.325 92.2216 161.972 91.6207 164.724 90.6747C167.477 89.7339 170.396 88.2965 167.456 88.2781C164.514 88.2632 160.764 90.2542 160.764 90.2542ZM88.7963 108.426C88.7963 108.426 88.7942 108.904 87.1558 108.426C85.5186 107.948 86.0626 108.431 84.4253 108.908C82.787 109.386 79.1699 109.66 80.5254 110.233C81.883 110.805 82.4008 110.61 84.5113 110.233C86.6217 109.849 88.6266 110.346 90.0767 109.386C91.5269 108.426 92.1219 107.504 94.2574 106.988C96.395 106.469 99.5128 105.471 97.2631 105.187C95.0124 104.908 92.5277 106.067 91.4812 106.767C90.4336 107.466 88.7963 108.426 88.7963 108.426ZM57.1125 113.226C55.8179 113.315 52.7426 114.186 54.9281 114.186C57.1125 114.186 56.7851 114.35 57.6586 114.186C58.5332 114.015 57.1125 113.226 57.1125 113.226ZM44.5499 114.663C44.3966 114.668 44.2431 114.668 44.0898 114.663C42.099 114.634 39.2477 114.256 41.2722 115.145C43.4577 116.101 44.5499 116.582 45.3691 116.101C46.1882 115.623 44.4042 114.668 44.4042 114.668L44.5499 114.663ZM218.803 108.908C219.876 107.641 222.628 106.988 221.536 106.506C220.442 106.029 222.368 106.506 220.442 106.029C218.517 105.551 218.803 105.069 217.712 106.029C216.618 106.988 216.618 107.944 216.618 108.426C216.618 108.908 216.621 108.426 216.072 109.386C215.525 110.346 217.713 110.823 217.166 111.783C216.618 112.743 217.165 115.623 217.712 113.226C218.258 110.828 218.803 109.864 218.803 109.386V108.908ZM740.937 154.279C740.475 154.96 739.181 155.697 739.979 156.402C740.771 157.097 741.567 157.357 742.117 158.317C742.66 159.277 742.682 159.452 743.204 157.839C743.727 156.227 744.842 155.92 744.298 154.96C743.754 154 744.298 152.562 743.204 153.04C742.117 153.522 740.937 154.279 740.937 154.279ZM741.503 161.376C739.78 161.679 737.739 161.764 738.838 162.634C739.931 163.509 740.475 163.117 740.475 165.037C740.475 166.956 739.931 166.952 739.931 167.912C739.931 168.872 739.322 169.406 741.023 169.353C742.72 169.302 742.111 168.105 743.48 168.45C744.847 168.801 745.94 168.872 745.665 166.956C745.391 165.037 746.484 165.037 745.665 163.358C744.847 161.679 745.709 159.958 744.298 160.237C742.887 160.516 741.503 161.376 741.503 161.376ZM719.64 166.474C720.265 166.956 720.814 168.872 719.177 168.393C717.534 167.912 718.622 166.956 717.534 167.434C716.441 167.912 714.799 166.952 716.167 166.474C717.534 165.997 719.64 166.474 719.64 166.474ZM722.72 165.751C722.995 165.996 723.269 164.781 723.269 164.781C723.269 164.781 721.342 165.051 721.621 165.282C721.902 165.514 722.72 165.751 722.72 165.751ZM808.211 185.185C806.025 185.185 807.609 185.662 806.025 185.185C804.442 184.702 803.031 183.265 803.295 184.702C803.553 186.145 804.593 185.44 805.035 185.79C805.477 186.145 806.882 185.814 807.802 186.622C808.717 187.435 808.589 187.1 810.269 187.1C811.949 187.1 812.035 187.583 813.129 187.1C814.221 186.622 815.891 186.622 813.672 186.145C811.453 185.662 812.143 185.185 810.468 185.185H808.211ZM841.534 185.185C840.984 186.145 839.897 185.185 839.897 186.622C839.897 188.064 841.34 189.02 842.256 188.542C843.171 188.064 844.178 187.412 845.217 186.622C846.256 185.832 849.158 184.466 847.338 184.882C845.524 185.294 845.357 185.662 844.264 185.662C843.171 185.662 841.534 185.185 841.534 185.185ZM820.704 181.208C819.881 181.95 819.138 181.345 819.682 182.305C820.226 183.265 820.075 182.707 820.775 182.305C821.475 181.903 820.704 181.208 820.704 181.208ZM878.378 369.079C878.62 368.568 878.718 369.182 878.378 369.079V369.079Z" fill="#29303F"/>
<path d="M1262.14 192.859C1262.41 192.628 1263.37 191.72 1262.14 190.939C1260.92 190.164 1260.51 190.462 1258.32 190.939C1256.14 191.422 1255.05 190.939 1255.05 192.859C1255.05 194.779 1254.88 195.257 1256.61 194.779C1258.32 194.297 1255.65 193.772 1258.89 193.796C1262.14 193.819 1262.14 192.859 1262.14 192.859ZM1113.02 23.5155C1113.02 23.5155 1109.74 20.158 1108.1 22.5554C1106.46 24.9529 1108.1 26.3903 1112.48 26.8721C1116.85 27.3547 1113.02 27.8321 1119.02 26.8721C1125.04 25.9129 1134.86 25.4355 1129.41 24.4755C1123.94 23.5155 1114.66 22.5554 1114.66 22.5554C1114.66 22.5554 1127.03 23.865 1135.52 24.7348C1140.61 25.2551 1144.3 25.6151 1143.07 25.4355L1113.02 23.5155ZM1397.61 372.757C1396.53 371.798 1395.23 371.84 1396.53 372.757C1397.82 373.675 1395.98 373.235 1398.71 374.194C1401.44 375.154 1402.53 375.154 1401.99 375.154C1401.44 375.154 1397.61 372.757 1397.61 372.757ZM1406.9 377.557C1405.26 376.115 1403.63 375.637 1405.26 376.597C1406.9 377.557 1407.45 380.432 1407.45 380.432L1406.9 377.557ZM1429.85 404.661C1427.12 403.46 1425.47 403.942 1426.02 405.38C1426.57 406.822 1427.94 409.702 1428.76 411.135C1429.56 412.567 1432.32 414.832 1430.93 411.616C1429.56 408.406 1429.85 404.661 1429.85 404.661ZM1409.09 383.614C1408 384.754 1407.6 385.383 1409.09 385.709C1410.58 386.04 1410.98 387.808 1410.58 386.04C1410.18 384.271 1409.09 383.614 1409.09 383.614Z" fill="#29303F"/>
</g>
</svg>
