<svg width="474" height="79" viewBox="0 0 474 79" fill="none" xmlns="http://www.w3.org/2000/svg">
<path d="M418.7 26.2922L403.928 11.1182C396.378 19.9765 394.491 29.5731 394.491 33.2641H403.928C405.068 34.2353 404.899 34.3676 403.928 35.3146H394.491C392.521 45.4854 396.953 54.043 399.415 57.0505L407.211 51.719C408.875 51.846 409.008 52.3721 408.442 53.7696L398.184 61.1516C402.785 66.981 405.345 69.9459 411.314 74.6852L418.289 63.6122C419.734 63.4258 419.809 63.4526 420.341 64.8426L415.827 72.6346C423.377 78.5402 433.197 78.6496 437.164 77.9661V67.7133C438.227 66.7608 438.447 66.7842 439.626 67.7133V77.9661C449.473 77.638 457.816 71.541 460.552 68.5335L447.011 54.5898C436.507 61.1516 427.59 57.8707 424.444 55.41L431.419 41.4663L417.469 48.4382C410.903 43.1888 415.554 31.487 418.7 26.2922Z" fill="white"/>
<path fill-rule="evenodd" clip-rule="evenodd" d="M440.921 5.0683C441.891 5.94997 442.8 6.73729 443.896 7.37751C444.282 7.60304 444.508 7.67113 444.62 7.6899C444.666 7.60243 444.746 7.4045 444.802 7.00525C444.989 5.65828 444.677 3.54991 444.275 1.94173C444.149 1.43835 444.309 0.906535 444.691 0.555452C445.073 0.204369 445.616 0.0901834 446.107 0.257804C449.229 1.32333 453.863 3.44795 457.666 6.40057C461.406 9.30482 464.727 13.3205 464.338 18.1873C463.93 23.2869 464.154 26.7823 464.798 28.9462C465.117 30.0197 465.509 30.6586 465.878 31.0167C466.214 31.3422 466.579 31.486 467.039 31.486C467.619 31.486 468.203 31.1094 468.763 30.1694C469.31 29.252 469.634 28.0999 469.752 27.333C469.852 26.6793 470.392 26.1821 471.051 26.135C471.711 26.0879 472.315 26.5034 472.508 27.1361C477.309 42.9332 469.383 57.6476 464.832 63.0593C464.574 63.3668 464.197 63.5501 463.795 63.5634C463.394 63.5768 463.005 63.4191 462.727 63.1295L452.032 52.0083C451.574 51.532 451.506 50.8024 451.869 50.2497C454.511 46.2181 457.881 35.3205 449.475 24.7213C445.355 19.5251 440.082 17.8739 435.08 17.9156C430.023 17.9578 425.285 19.7399 422.505 21.3583C421.941 21.6869 421.225 21.5871 420.772 21.1167L409.666 9.58353C409.16 9.05794 409.136 8.23388 409.61 7.67956C411.493 5.4796 417.252 1.2198 426.154 0.191194C431.788 -0.459683 435.123 0.620276 437.708 2.38505C438.802 3.13245 439.742 3.99168 440.601 4.77647C440.709 4.87504 440.816 4.97244 440.921 5.0683ZM444.71 7.69399C444.711 7.69462 444.705 7.69605 444.693 7.69638C444.704 7.69351 444.71 7.69335 444.71 7.69399ZM436.11 4.72512C434.17 3.40065 431.541 2.42112 426.48 3.00594C419.533 3.80854 414.813 6.74108 412.672 8.6206L422.061 18.3705C425.228 16.7264 429.969 15.1247 435.056 15.0823C440.756 15.0347 446.932 16.9534 451.696 22.9607C460.475 34.0312 457.767 45.5152 454.826 50.8256L463.639 59.9904C467.444 54.811 472.623 44.0681 470.778 32.2499C469.976 33.3303 468.759 34.3195 467.039 34.3195C465.854 34.3195 464.779 33.897 463.906 33.0511C463.067 32.2379 462.482 31.1006 462.082 29.7541C461.286 27.0783 461.098 23.1594 461.513 17.9616C461.783 14.5905 459.482 11.398 455.928 8.63862C453.281 6.58322 450.15 4.93975 447.521 3.8319C447.687 5.04401 447.757 6.32116 447.608 7.39549C447.484 8.29088 447.145 9.51217 446.082 10.1553C444.917 10.8602 443.592 10.4815 442.467 9.82414C441.095 9.02271 439.999 8.05947 439.015 7.16484C438.906 7.06542 438.798 6.96715 438.692 6.87006C437.816 6.07135 437.028 5.35222 436.11 4.72512Z" fill="white"/>
<path d="M26.7862 26.0391H20.8757C20.7678 25.2744 20.5473 24.5952 20.2145 24.0014C19.8816 23.3987 19.4543 22.8859 18.9325 22.4631C18.4107 22.0402 17.808 21.7164 17.1243 21.4915C16.4496 21.2666 15.7164 21.1541 14.9247 21.1541C13.4943 21.1541 12.2483 21.5095 11.1868 22.2202C10.1252 22.9219 9.30208 23.9474 8.71733 25.2969C8.13258 26.6373 7.8402 28.2656 7.8402 30.1818C7.8402 32.152 8.13258 33.8073 8.71733 35.1477C9.31108 36.4882 10.1387 37.5002 11.2003 38.1839C12.2618 38.8677 13.4898 39.2095 14.8842 39.2095C15.6669 39.2095 16.3911 39.1061 17.0568 38.8991C17.7315 38.6922 18.3298 38.3909 18.8516 37.995C19.3733 37.5902 19.8052 37.0999 20.147 36.5241C20.4979 35.9484 20.7408 35.2917 20.8757 34.554L26.7862 34.581C26.6333 35.8494 26.2509 37.0729 25.6392 38.2514C25.0365 39.4209 24.2223 40.469 23.1967 41.3956C22.1802 42.3132 20.9657 43.0419 19.5533 43.5817C18.1499 44.1125 16.562 44.3778 14.7898 44.3778C12.3248 44.3778 10.1207 43.8201 8.17756 42.7045C6.24337 41.589 4.71402 39.9742 3.58949 37.8601C2.47396 35.746 1.91619 33.1866 1.91619 30.1818C1.91619 27.1681 2.48295 24.6042 3.61648 22.4901C4.75 20.3759 6.28835 18.7656 8.23153 17.6591C10.1747 16.5436 12.3608 15.9858 14.7898 15.9858C16.3911 15.9858 17.8755 16.2107 19.2429 16.6605C20.6193 17.1103 21.8383 17.767 22.8999 18.6307C23.9614 19.4853 24.825 20.5334 25.4908 21.7749C26.1655 23.0163 26.5973 24.4377 26.7862 26.0391ZM47.3802 44H41.1188L50.6593 16.3636H58.1891L67.7161 44H61.4547L54.5322 22.679H54.3162L47.3802 44ZM46.9888 33.1371H61.7786V37.6982H46.9888V33.1371ZM106.318 16.3636V44H101.271L89.2479 26.6058H89.0455V44H83.2025V16.3636H88.3303L100.259 33.7443H100.502V16.3636H106.318ZM128.069 44H121.808L131.348 16.3636H138.878L148.405 44H142.144L135.221 22.679H135.005L128.069 44ZM127.678 33.1371H142.468V37.6982H127.678V33.1371ZM186.977 26.0391H181.066C180.959 25.2744 180.738 24.5952 180.405 24.0014C180.072 23.3987 179.645 22.8859 179.123 22.4631C178.602 22.0402 177.999 21.7164 177.315 21.4915C176.64 21.2666 175.907 21.1541 175.115 21.1541C173.685 21.1541 172.439 21.5095 171.378 22.2202C170.316 22.9219 169.493 23.9474 168.908 25.2969C168.323 26.6373 168.031 28.2656 168.031 30.1818C168.031 32.152 168.323 33.8073 168.908 35.1477C169.502 36.4882 170.33 37.5002 171.391 38.1839C172.453 38.8677 173.681 39.2095 175.075 39.2095C175.858 39.2095 176.582 39.1061 177.248 38.8991C177.922 38.6922 178.521 38.3909 179.042 37.995C179.564 37.5902 179.996 37.0999 180.338 36.5241C180.689 35.9484 180.932 35.2917 181.066 34.554L186.977 34.581C186.824 35.8494 186.442 37.0729 185.83 38.2514C185.227 39.4209 184.413 40.469 183.388 41.3956C182.371 42.3132 181.156 43.0419 179.744 43.5817C178.341 44.1125 176.753 44.3778 174.981 44.3778C172.516 44.3778 170.312 43.8201 168.368 42.7045C166.434 41.589 164.905 39.9742 163.78 37.8601C162.665 35.746 162.107 33.1866 162.107 30.1818C162.107 27.1681 162.674 24.6042 163.807 22.4901C164.941 20.3759 166.479 18.7656 168.422 17.6591C170.365 16.5436 172.552 15.9858 174.981 15.9858C176.582 15.9858 178.066 16.2107 179.434 16.6605C180.81 17.1103 182.029 17.767 183.091 18.6307C184.152 19.4853 185.016 20.5334 185.682 21.7749C186.356 23.0163 186.788 24.4377 186.977 26.0391ZM209.17 16.3636V44H203.327V16.3636H209.17ZM249.253 16.3636V44H244.206L232.183 26.6058H231.98V44H226.137V16.3636H231.265L243.194 33.7443H243.437V16.3636H249.253ZM265.188 21.1811V16.3636H287.886V21.1811H279.425V44H273.649V21.1811H265.188ZM303.784 44V16.3636H314.687C316.774 16.3636 318.555 16.737 320.031 17.4837C321.515 18.2214 322.644 19.2694 323.418 20.6278C324.2 21.9773 324.592 23.5651 324.592 25.3913C324.592 27.2266 324.196 28.8054 323.404 30.1278C322.613 31.4413 321.466 32.4489 319.963 33.1506C318.47 33.8523 316.662 34.2031 314.539 34.2031H307.238V29.5071H313.594C314.709 29.5071 315.636 29.3542 316.374 29.0483C317.111 28.7424 317.66 28.2836 318.02 27.6719C318.389 27.0601 318.573 26.3 318.573 25.3913C318.573 24.4737 318.389 23.7 318.02 23.0703C317.66 22.4406 317.107 21.9638 316.36 21.6399C315.623 21.3071 314.691 21.1406 313.567 21.1406H309.627V44H303.784ZM318.708 31.4233L325.577 44H319.127L312.406 31.4233H318.708ZM345.645 44H339.383L348.924 16.3636H356.453L365.98 44H359.719L352.797 22.679H352.581L345.645 44ZM345.253 33.1371H360.043V37.6982H345.253V33.1371Z" fill="white"/>
<path d="M66.5455 68V56.3636H67.608V67.0455H73.1534V68H66.5455ZM76.2969 68H75.1832L79.4162 56.3636H80.5526L84.7855 68H83.6719L80.0241 57.7443H79.9446L76.2969 68ZM77.098 63.5398H82.8707V64.4943H77.098V63.5398ZM91.2798 68V56.3636H98.0128V57.3182H92.3423V61.6989H97.4844V62.6534H92.3423V68H91.2798ZM108.411 56.3636H109.473V64.0682C109.473 64.8598 109.287 65.5682 108.916 66.1932C108.545 66.8144 108.028 67.3049 107.365 67.6648C106.706 68.0208 105.939 68.1989 105.064 68.1989C104.193 68.1989 103.426 68.0189 102.763 67.6591C102.1 67.2992 101.583 66.8087 101.212 66.1875C100.84 65.5663 100.655 64.8598 100.655 64.0682V56.3636H101.717V63.9943C101.717 64.6117 101.856 65.1629 102.132 65.6477C102.409 66.1288 102.797 66.5076 103.297 66.7841C103.801 67.0606 104.39 67.1989 105.064 67.1989C105.738 67.1989 106.327 67.0606 106.831 66.7841C107.335 66.5076 107.723 66.1288 107.996 65.6477C108.272 65.1629 108.411 64.6117 108.411 63.9943V56.3636ZM112.561 68V56.3636H119.311V57.3182H113.624V61.6989H118.953V62.6534H113.624V67.0455H119.425V68H112.561ZM122.061 68V56.3636H125.817C126.643 56.3636 127.332 56.5133 127.885 56.8125C128.442 57.108 128.86 57.5189 129.141 58.0455C129.425 58.5682 129.567 59.1686 129.567 59.8466C129.567 60.5246 129.425 61.1231 129.141 61.642C128.86 62.161 128.444 62.5663 127.891 62.858C127.338 63.1496 126.652 63.2955 125.834 63.2955H122.635V62.3239H125.805C126.411 62.3239 126.915 62.2235 127.317 62.0227C127.722 61.822 128.023 61.536 128.22 61.1648C128.421 60.7936 128.521 60.3542 128.521 59.8466C128.521 59.339 128.421 58.8958 128.22 58.517C128.019 58.1345 127.716 57.839 127.311 57.6307C126.91 57.4223 126.402 57.3182 125.788 57.3182H123.124V68H122.061ZM127.192 62.75L130.055 68H128.828L125.993 62.75H127.192ZM131.695 68V67.1989L138.155 57.3182H131.661V56.3636H139.422V57.1648L132.956 67.0455H139.479V68H131.695ZM142.062 68H140.949L145.182 56.3636H146.318L150.551 68H149.438L145.79 57.7443H145.71L142.062 68ZM142.864 63.5398H148.636V64.4943H142.864V63.5398ZM160.455 68H157.045V56.3636H160.659C161.769 56.3636 162.718 56.5947 163.506 57.0568C164.297 57.5189 164.903 58.1818 165.324 59.0455C165.744 59.9091 165.955 60.9451 165.955 62.1534C165.955 63.3731 165.739 64.4205 165.307 65.2955C164.879 66.1667 164.254 66.8352 163.432 67.3011C162.614 67.767 161.621 68 160.455 68ZM158.108 67.0455H160.392C161.392 67.0455 162.229 66.8485 162.903 66.4545C163.578 66.0606 164.083 65.4981 164.42 64.767C164.758 64.036 164.926 63.1648 164.926 62.1534C164.922 61.1496 164.756 60.286 164.426 59.5625C164.1 58.839 163.616 58.2841 162.972 57.8977C162.331 57.5114 161.54 57.3182 160.597 57.3182H158.108V67.0455ZM168.53 68V56.3636H175.28V57.3182H169.592V61.6989H174.922V62.6534H169.592V67.0455H175.393V68H168.53ZM182.53 68V56.3636H183.592V67.0455H189.138V68H182.53ZM192.281 68H191.168L195.401 56.3636H196.537L200.77 68H199.656L196.009 57.7443H195.929L192.281 68ZM193.082 63.5398H198.855V64.4943H193.082V63.5398ZM208.327 56.3636V68H207.264V56.3636H208.327ZM220.483 56.3636V68H219.449L212.574 58.2557H212.483V68H211.42V56.3636H212.449L219.347 66.1193H219.438V56.3636H220.483ZM226.986 68H223.577V56.3636H227.19C228.3 56.3636 229.249 56.5947 230.037 57.0568C230.829 57.5189 231.435 58.1818 231.855 59.0455C232.276 59.9091 232.486 60.9451 232.486 62.1534C232.486 63.3731 232.27 64.4205 231.838 65.2955C231.41 66.1667 230.785 66.8352 229.963 67.3011C229.145 67.767 228.152 68 226.986 68ZM224.639 67.0455H226.923C227.923 67.0455 228.76 66.8485 229.435 66.4545C230.109 66.0606 230.615 65.4981 230.952 64.767C231.289 64.036 231.457 63.1648 231.457 62.1534C231.454 61.1496 231.287 60.286 230.957 59.5625C230.632 58.839 230.147 58.2841 229.503 57.8977C228.863 57.5114 228.071 57.3182 227.128 57.3182H224.639V67.0455ZM242.817 56.3636H243.879V64.0682C243.879 64.8598 243.694 65.5682 243.322 66.1932C242.951 66.8144 242.434 67.3049 241.771 67.6648C241.112 68.0208 240.345 68.1989 239.47 68.1989C238.599 68.1989 237.832 68.0189 237.169 67.6591C236.506 67.2992 235.989 66.8087 235.618 66.1875C235.247 65.5663 235.061 64.8598 235.061 64.0682V56.3636H236.124V63.9943C236.124 64.6117 236.262 65.1629 236.538 65.6477C236.815 66.1288 237.203 66.5076 237.703 66.7841C238.207 67.0606 238.796 67.1989 239.47 67.1989C240.144 67.1989 240.733 67.0606 241.237 66.7841C241.741 66.5076 242.129 66.1288 242.402 65.6477C242.679 65.1629 242.817 64.6117 242.817 63.9943V56.3636ZM253.286 59.2727C253.221 58.625 252.935 58.1098 252.428 57.7273C251.92 57.3447 251.282 57.1534 250.513 57.1534C249.971 57.1534 249.494 57.2462 249.081 57.4318C248.672 57.6174 248.35 57.875 248.115 58.2045C247.884 58.5303 247.768 58.9015 247.768 59.3182C247.768 59.625 247.835 59.8939 247.967 60.125C248.1 60.3561 248.278 60.5549 248.501 60.7216C248.729 60.8845 248.979 61.0246 249.251 61.142C249.528 61.2595 249.806 61.358 250.087 61.4375L251.314 61.7898C251.685 61.892 252.056 62.0227 252.428 62.1818C252.799 62.3409 253.138 62.5417 253.445 62.7841C253.755 63.0227 254.003 63.3163 254.189 63.6648C254.378 64.0095 254.473 64.4242 254.473 64.9091C254.473 65.5303 254.312 66.089 253.99 66.5852C253.668 67.0814 253.206 67.4754 252.604 67.767C252.001 68.0549 251.28 68.1989 250.439 68.1989C249.647 68.1989 248.96 68.0682 248.376 67.8068C247.793 67.5417 247.335 67.1761 247.001 66.7102C246.668 66.2443 246.481 65.7045 246.439 65.0909H247.53C247.568 65.5492 247.719 65.9375 247.984 66.2557C248.25 66.5739 248.594 66.8163 249.018 66.983C249.443 67.1458 249.916 67.2273 250.439 67.2273C251.018 67.2273 251.534 67.1307 251.984 66.9375C252.439 66.7405 252.795 66.4678 253.053 66.1193C253.314 65.767 253.445 65.358 253.445 64.892C253.445 64.4981 253.342 64.1686 253.138 63.9034C252.933 63.6345 252.647 63.4091 252.28 63.2273C251.916 63.0455 251.494 62.8845 251.013 62.7443L249.621 62.3352C248.708 62.0625 248 61.6856 247.496 61.2045C246.992 60.7235 246.74 60.1098 246.74 59.3636C246.74 58.7386 246.907 58.1894 247.24 57.7159C247.577 57.2386 248.032 56.8674 248.604 56.6023C249.179 56.3333 249.825 56.1989 250.541 56.1989C251.265 56.1989 251.905 56.3314 252.462 56.5966C253.018 56.8617 253.46 57.2273 253.786 57.6932C254.115 58.1553 254.291 58.6818 254.314 59.2727H253.286ZM256.325 57.3182V56.3636H264.763V57.3182H261.075V68H260.013V57.3182H256.325ZM267.155 68V56.3636H270.911C271.736 56.3636 272.426 56.5133 272.979 56.8125C273.536 57.108 273.954 57.5189 274.234 58.0455C274.518 58.5682 274.661 59.1686 274.661 59.8466C274.661 60.5246 274.518 61.1231 274.234 61.642C273.954 62.161 273.537 62.5663 272.984 62.858C272.431 63.1496 271.746 63.2955 270.928 63.2955H267.729V62.3239H270.899C271.505 62.3239 272.009 62.2235 272.411 62.0227C272.816 61.822 273.117 61.536 273.314 61.1648C273.515 60.7936 273.615 60.3542 273.615 59.8466C273.615 59.339 273.515 58.8958 273.314 58.517C273.113 58.1345 272.81 57.839 272.405 57.6307C272.003 57.4223 271.496 57.3182 270.882 57.3182H268.217V68H267.155ZM272.286 62.75L275.149 68H273.922L271.087 62.75H272.286ZM278.311 56.3636V68H277.249V56.3636H278.311ZM281.422 68H280.308L284.541 56.3636H285.678L289.911 68H288.797L285.149 57.7443H285.07L281.422 68ZM282.223 63.5398H287.996V64.4943H282.223V63.5398Z" fill="white"/>
</svg>
