<svg width="80" height="79" viewBox="0 0 80 79" fill="none" xmlns="http://www.w3.org/2000/svg">
<path d="M24.6995 26.292L9.9281 11.1179C2.37826 19.9763 0.490803 29.5729 0.490804 33.2639H9.9281C11.0684 34.2351 10.899 34.3673 9.9281 35.3144H0.490804C-1.47872 45.4851 2.95271 54.0428 5.41461 57.0502L13.2106 51.7188C14.8746 51.8458 15.0077 52.3718 14.4416 53.7693L4.18366 61.1513C8.78452 66.9807 11.345 69.9456 17.3138 74.685L24.2892 63.612C25.7345 63.4256 25.8094 63.4523 26.3408 64.8423L21.8273 72.6344C29.3771 78.54 39.1974 78.6493 43.1638 77.9658V67.7131C44.2273 66.7605 44.447 66.784 45.6257 67.7131V77.9658C55.4733 77.6377 63.8164 71.5408 66.5519 68.5333L53.0114 54.5896C42.5073 61.1513 33.5897 57.8704 30.444 55.4098L37.4193 41.4661L23.4686 48.4379C16.9035 43.1885 21.5538 31.4867 24.6995 26.292Z" fill="white"/>
<path fill-rule="evenodd" clip-rule="evenodd" d="M46.9211 5.0683C47.8909 5.94997 48.8002 6.73729 49.8962 7.37751C50.2823 7.60304 50.508 7.67113 50.6202 7.6899C50.6655 7.60243 50.7461 7.4045 50.8016 7.00525C50.9889 5.65828 50.6765 3.54991 50.275 1.94173C50.1494 1.43835 50.3089 0.906535 50.6909 0.555452C51.0729 0.204369 51.6163 0.0901834 52.1073 0.257804C55.2285 1.32333 59.8628 3.44795 63.6655 6.40057C67.406 9.30482 70.7265 13.3205 70.3377 18.1873C69.9303 23.2869 70.1539 26.7823 70.7976 28.9462C71.1169 30.0197 71.5089 30.6586 71.8783 31.0167C72.214 31.3422 72.5786 31.486 73.0388 31.486C73.6188 31.486 74.2025 31.1094 74.7629 30.1694C75.3098 29.252 75.634 28.0999 75.7518 27.333C75.8522 26.6793 76.3915 26.1821 77.0512 26.135C77.7108 26.0879 78.3153 26.5034 78.5076 27.1361C83.3088 42.9332 75.3834 57.6476 70.8325 63.0593C70.5739 63.3668 70.1969 63.5501 69.7954 63.5634C69.3938 63.5768 69.0055 63.4191 68.727 63.1295L58.0324 52.0083C57.5744 51.532 57.5064 50.8024 57.8686 50.2497C60.5107 46.2181 63.8809 35.3205 55.4755 24.7213C51.3547 19.5251 46.0819 17.8739 41.0799 17.9156C36.0227 17.9578 31.2849 19.7399 28.5052 21.3583C27.9408 21.6869 27.2249 21.5871 26.7719 21.1167L15.6659 9.58353C15.1598 9.05794 15.1356 8.23388 15.6101 7.67956C17.4932 5.4796 23.2521 1.2198 32.1544 0.191194C37.7876 -0.459683 41.1229 0.620276 43.7076 2.38505C44.8023 3.13245 45.7425 3.99168 46.6012 4.77647C46.7091 4.87504 46.8157 4.97244 46.9211 5.0683ZM50.7103 7.69399C50.7106 7.69462 50.7049 7.69605 50.6926 7.69638C50.7038 7.69351 50.71 7.69335 50.7103 7.69399ZM42.1099 4.72512C40.1701 3.40065 37.5411 2.42112 32.4796 3.00594C25.5333 3.80854 20.8129 6.74108 18.6723 8.6206L28.061 18.3705C31.2285 16.7264 35.9685 15.1247 41.0563 15.0823C46.7557 15.0347 52.9316 16.9534 57.6956 22.9607C66.4748 34.0312 63.7668 45.5152 60.8261 50.8256L69.6393 59.9904C73.4443 54.811 78.6233 44.0681 76.7779 32.2499C75.9759 33.3303 74.7591 34.3195 73.0388 34.3195C71.8537 34.3195 70.7786 33.897 69.9061 33.0511C69.0672 32.2379 68.4823 31.1006 68.0817 29.7541C67.2858 27.0783 67.098 23.1594 67.5133 17.9616C67.7826 14.5905 65.4816 11.398 61.9278 8.63862C59.2806 6.58322 56.1498 4.93975 53.5215 3.8319C53.6869 5.04401 53.7575 6.32116 53.6081 7.39549C53.4836 8.29088 53.1451 9.51217 52.0823 10.1553C50.9174 10.8602 49.5923 10.4815 48.467 9.82414C47.095 9.02271 45.9991 8.05947 45.015 7.16484C44.9057 7.06542 44.798 6.96715 44.6916 6.87006C43.8164 6.07135 43.0284 5.35222 42.1099 4.72512Z" fill="white"/>
</svg>
